<!-- Created with Inkscape (http://www.inkscape.org/) -->
<svg width="688.84" height="150" version="1.1" viewBox="0 0 688.84 150" xmlns="http://www.w3.org/2000/svg">
 <g transform="matrix(4.137 0 0 4.137 -3356.6 -512.87)">
  <g fill="#006197">
   <path d="m875.64 135.7-5.104 6.0627c-0.21467 0.25066-0.21467 0.62 0 0.86933l5.1067 6.0547c0.404 0.48 1.1867 0.19333 1.1867-0.43734v-12.113c0-0.62933-0.78533-0.916-1.1893-0.436"/>
   <path d="m856.25 124.34-3e-3 3e-3s-1.704-0.14534-1.704 1.5973v32.401l3e-3 -1e-3s-0.14533 1.7053 1.596 1.7053h11.632s1.6867 0.14 1.7027-1.5707v-29.133c0-2.1747 0.236-2.996 1.4053-3.3387 7e-3 -1e-3 -3e-3 0 0 0 2.9413-0.75067 7.408 5.1453 12.615 12.048 0.564 0.74666 1.7133 0.50266 1.8053-0.34 0.0693-0.62534 0-11.661 0-11.661l-1e-3 -3e-3s0.14533-1.704-1.5973-1.704h-7e-3z"/>
   <path d="m848.96 160.03h9e-3c1.7413 0 1.596-1.704 1.596-1.704l3e-3 -1e-3s0.0693-11.036 0-11.663c-0.092-0.84533-1.2413-1.0867-1.8067-0.34-5.2133 6.9133-9.8947 12.811-12.831 12.037-0.656-0.17466-1.3093-0.996-1.3133-1.0013-1.7573-2.0867-3.0373-7.764-3.06-15.175 0.0227-7.4107 1.3667-13.068 3.1227-15.152 5e-3 -7e-3 0.65733-0.832 1.3147-1.0053 2.936-0.772 7.5533 5.108 12.767 12.02 0.56534 0.74667 1.7147 0.504 1.8067-0.33867 0.0693-0.62533 0-11.663 0-11.663l-3e-3 -3e-3s0.14534-1.7053-1.596-1.7053h-20.144c-9.576 0-17.336 8.016-17.477 17.763h-1e-3c0 0.028 1e-3 0.0573 1e-3 0.084 0 0.0293-1e-3 0.056-1e-3 0.0867h1e-3c0.14133 9.744 7.9013 17.76 17.477 17.76h20.135"/>
  </g>
  <g fill="#52575a">
   <path d="m903.36 140.77c-1.1693 0-2.26-0.20267-3.2747-0.60933-1.016-0.404-1.8987-0.97734-2.6533-1.7147s-1.348-1.624-1.7773-2.6547c-0.43067-1.0293-0.64534-2.1707-0.64534-3.42 0-1.2493 0.21467-2.3907 0.64534-3.42 0.42933-1.0307 1.0227-1.916 1.7773-2.6547 0.75467-0.73734 1.6373-1.3107 2.6533-1.716 1.0147-0.40534 2.1053-0.608 3.2747-0.608 0.71333 0 1.376 0.0813 1.984 0.24266 0.60933 0.16267 1.1693 0.38934 1.68 0.68134s0.97333 0.63333 1.388 1.0213c0.41333 0.39067 0.78133 0.81333 1.1067 1.2667l-1.704 0.94933c-0.47067-0.68-1.1-1.2453-1.8853-1.692-0.78933-0.44533-1.644-0.66933-2.5693-0.66933-0.89333 0-1.72 0.16266-2.4827 0.488-0.764 0.324-1.4253 0.77866-1.9853 1.3627s-0.99867 1.2787-1.3147 2.0827c-0.31733 0.80267-0.47466 1.6907-0.47466 2.6653 0 0.95734 0.15733 1.8413 0.47466 2.6533 0.316 0.81066 0.75467 1.5107 1.3147 2.0933 0.56 0.58533 1.2213 1.04 1.9853 1.364 0.76267 0.32533 1.5893 0.48667 2.4827 0.48667 0.92533 0 1.78-0.21867 2.5693-0.65867 0.78534-0.43733 1.4147-1.004 1.8853-1.7027l1.7293 0.94934c-0.68133 0.92533-1.5213 1.692-2.52 2.3013-0.99867 0.608-2.22 0.912-3.664 0.912"/>
   <path d="m916.17 139.45c0.64933 0 1.26-0.12 1.8373-0.364 0.576-0.24533 1.0427-0.60933 1.4013-1.096v-2.216c-0.35867-0.488-0.82534-0.85067-1.4013-1.0947-0.57733-0.244-1.188-0.36666-1.8373-0.36666-0.86133 0-1.5587 0.24-2.0947 0.72-0.536 0.47733-0.80266 1.0987-0.80266 1.8613 0 0.74667 0.26666 1.36 0.80266 1.8387 0.536 0.47866 1.2333 0.71733 2.0947 0.71733m3.2387 1.0227v-1.3387c-0.99067 1.0867-2.2893 1.6307-3.896 1.6307-0.504 0-0.99867-0.0813-1.4853-0.24267-0.488-0.16267-0.92666-0.41067-1.3147-0.74267-0.38934-0.332-0.70667-0.744-0.94934-1.2307-0.244-0.48667-0.36533-1.0453-0.36533-1.6787 0-0.64933 0.12133-1.2173 0.36533-1.704 0.24267-0.48667 0.56-0.89333 0.94934-1.2173 0.388-0.324 0.82666-0.564 1.3147-0.71867 0.48667-0.15333 0.98134-0.23067 1.4853-0.23067 0.81066 0 1.5467 0.12934 2.204 0.388 0.656 0.26134 1.22 0.66667 1.692 1.2187v-2.1187c0-0.79466-0.28134-1.408-0.84134-1.8373-0.56-0.43067-1.2707-0.64533-2.1307-0.64533-1.3787 0-2.58 0.544-3.6027 1.6307l-0.85067-1.2667c1.248-1.2973 2.8147-1.9467 4.6973-1.9467 0.616 0 1.2013 0.0733 1.7533 0.22 0.552 0.144 1.0333 0.376 1.448 0.69333 0.41467 0.316 0.744 0.72534 0.98667 1.228 0.24266 0.504 0.36533 1.1133 0.36533 1.8267v8.0827z"/>
   <path d="m929.87 139.14c0.73067 0 1.42-0.18 2.0693-0.53733 0.64934-0.356 1.136-0.79467 1.46-1.3133v-5.332c-0.324-0.51866-0.81066-0.96666-1.46-1.3387-0.64933-0.37334-1.3387-0.56-2.0693-0.56-0.584 0-1.1133 0.11333-1.5827 0.34133-0.47066 0.22667-0.86933 0.544-1.192 0.94933-0.32533 0.40534-0.57333 0.888-0.744 1.448-0.17066 0.56-0.25466 1.1653-0.25466 1.8133 0 0.64933 0.084 1.2493 0.25466 1.8013 0.17067 0.55333 0.41867 1.032 0.744 1.4373 0.32267 0.40534 0.72134 0.72134 1.192 0.94934 0.46934 0.228 0.99867 0.34133 1.5827 0.34133m3.5293 1.3387v-1.7533c-0.43733 0.60134-1.0027 1.092-1.6907 1.4733-0.69067 0.38-1.4493 0.572-2.2773 0.572-0.76266 0-1.4653-0.14134-2.1067-0.42667-0.64134-0.284-1.192-0.68933-1.6547-1.216-0.46267-0.528-0.824-1.1733-1.084-1.936-0.25867-0.76267-0.38933-1.6227-0.38933-2.5813 0-0.94134 0.12666-1.7933 0.37733-2.556 0.252-0.76267 0.60933-1.412 1.072-1.948s1.0133-0.94934 1.6547-1.2427c0.64133-0.29067 1.3507-0.43733 2.1307-0.43733 0.79467 0 1.5387 0.18266 2.228 0.548 0.68934 0.36533 1.2693 0.87333 1.74 1.5213v-6.2573h1.8267v16.24z"/>
   <path d="m938.88 128.72h1.8267v11.759h-1.8267zm0.9-1.6813c-0.324 0-0.608-0.11733-0.85067-0.35333-0.244-0.23467-0.36667-0.52267-0.36667-0.864 0-0.34 0.12267-0.632 0.36667-0.876 0.24267-0.244 0.52667-0.36533 0.85067-0.36533 0.34266 0 0.63333 0.12133 0.87733 0.36533s0.364 0.536 0.364 0.876c0 0.34133-0.12 0.62933-0.364 0.864-0.244 0.236-0.53467 0.35333-0.87733 0.35333"/>
   <path d="m944.36 124.24h1.8267v16.24h-1.8267z"/>
   <path d="m949.84 124.24h1.8253v16.24h-1.8253z"/>
   <path d="m959.43 139.45c0.65067 0 1.2613-0.12 1.8387-0.364 0.576-0.24533 1.0427-0.60933 1.4-1.096v-2.216c-0.35734-0.488-0.824-0.85067-1.4-1.0947-0.57734-0.244-1.188-0.36666-1.8387-0.36666-0.86 0-1.5587 0.24-2.0933 0.72-0.536 0.47733-0.804 1.0987-0.804 1.8613 0 0.74667 0.268 1.36 0.804 1.8387 0.53466 0.47866 1.2333 0.71733 2.0933 0.71733m3.2387 1.0227v-1.3387c-0.99067 1.0867-2.288 1.6307-3.896 1.6307-0.50267 0-0.99867-0.0813-1.484-0.24267-0.488-0.16267-0.92667-0.41067-1.316-0.74267-0.38934-0.332-0.70534-0.744-0.94934-1.2307-0.244-0.48667-0.36533-1.0453-0.36533-1.6787 0-0.64933 0.12133-1.2173 0.36533-1.704s0.56-0.89333 0.94934-1.2173c0.38933-0.324 0.828-0.564 1.316-0.71867 0.48533-0.15333 0.98133-0.23067 1.484-0.23067 0.812 0 1.5467 0.12934 2.2027 0.388 0.65867 0.26134 1.2213 0.66667 1.6933 1.2187v-2.1187c0-0.79466-0.28-1.408-0.84-1.8373-0.56-0.43067-1.2707-0.64533-2.1307-0.64533-1.38 0-2.58 0.544-3.6027 1.6307l-0.852-1.2667c1.2493-1.2973 2.816-1.9467 4.6987-1.9467 0.616 0 1.2 0.0733 1.7533 0.22 0.55067 0.144 1.0333 0.376 1.448 0.69333 0.41334 0.316 0.74134 0.72534 0.98534 1.228 0.244 0.504 0.36666 1.1133 0.36666 1.8267v8.0827z"/>
   <path d="m973.33 140.77c-0.876 0-1.6773-0.15733-2.3987-0.47467-0.72133-0.316-1.3387-0.75066-1.8493-1.3027-0.512-0.552-0.90933-1.2053-1.1933-1.96-0.284-0.75467-0.42667-1.5693-0.42667-2.4453 0-0.87733 0.14267-1.6893 0.42667-2.4347 0.284-0.748 0.68133-1.3973 1.1933-1.948 0.51067-0.552 1.128-0.98667 1.8493-1.3027 0.72134-0.31733 1.5227-0.47467 2.3987-0.47467 1.0707 0 1.944 0.19467 2.6173 0.584 0.672 0.38934 1.2373 0.87734 1.692 1.4613l-1.2173 1.1187c-0.38933-0.53466-0.832-0.92533-1.3267-1.168-0.496-0.244-1.0507-0.36533-1.668-0.36533-0.632 0-1.1987 0.11333-1.692 0.34133-0.496 0.22667-0.92133 0.544-1.2787 0.94934-0.356 0.40533-0.628 0.88533-0.816 1.436-0.18667 0.55066-0.27867 1.152-0.27867 1.8027 0 0.64934 0.092 1.2533 0.27867 1.812 0.188 0.56134 0.46 1.044 0.816 1.4493 0.35733 0.40666 0.78266 0.72266 1.2787 0.95066 0.49334 0.22667 1.06 0.34 1.692 0.34 1.2333 0 2.232-0.512 2.9947-1.5333l1.2173 1.1187c-0.45466 0.58533-1.02 1.072-1.692 1.4627-0.67333 0.388-1.5467 0.58267-2.6173 0.58267"/>
   <path d="m895.62 159.95v-15.435h10.111v1.712h-8.1907v4.976h8.0293v1.712h-8.0293v7.0347z"/>
   <path d="m912.18 158.98c0.61733 0 1.2-0.116 1.7467-0.34667 0.548-0.232 0.99066-0.57866 1.3307-1.0413v-2.1067c-0.34-0.46266-0.78266-0.80933-1.3307-1.04-0.54667-0.232-1.1293-0.348-1.7467-0.348-0.81867 0-1.4813 0.228-1.9907 0.68267-0.508 0.456-0.76266 1.0453-0.76266 1.7707 0 0.70933 0.25466 1.292 0.76266 1.7467 0.50934 0.456 1.172 0.68267 1.9907 0.68267m3.0773 0.972v-1.2733c-0.94133 1.0347-2.1747 1.5507-3.7027 1.5507-0.47734 0-0.948-0.076-1.4107-0.232-0.46267-0.15333-0.88-0.38933-1.2493-0.70533-0.36934-0.316-0.672-0.70533-0.90267-1.168-0.232-0.46267-0.34667-0.996-0.34667-1.5973 0-0.616 0.11467-1.1573 0.34667-1.62 0.23067-0.46134 0.53333-0.848 0.90267-1.156 0.36933-0.30934 0.78666-0.536 1.2493-0.68267s0.93333-0.22 1.4107-0.22c0.77066 0 1.4707 0.12267 2.0947 0.37067 0.624 0.24666 1.1613 0.632 1.608 1.156v-2.012c0-0.756-0.26666-1.34-0.79733-1.748-0.53333-0.408-1.208-0.61334-2.0253-0.61334-1.3107 0-2.4533 0.51734-3.424 1.5507l-0.81067-1.2027c1.188-1.2347 2.676-1.852 4.4653-1.852 0.58667 0 1.1413 0.0693 1.6653 0.208 0.52533 0.14 0.984 0.36 1.3773 0.66 0.39467 0.30134 0.70667 0.68934 0.93733 1.168 0.232 0.47867 0.348 1.0573 0.348 1.736v7.6827z"/>
   <path d="m920.12 148.78h1.736v11.176h-1.736zm0.856-1.5973c-0.30933 0-0.57866-0.112-0.81066-0.336-0.23067-0.224-0.34667-0.49734-0.34667-0.82134 0-0.32266 0.116-0.60133 0.34667-0.83333 0.232-0.23067 0.50133-0.34667 0.81066-0.34667 0.324 0 0.60267 0.116 0.83334 0.34667 0.23066 0.232 0.34533 0.51067 0.34533 0.83333 0 0.324-0.11467 0.59734-0.34533 0.82134-0.23067 0.224-0.50934 0.336-0.83334 0.336"/>
   <path d="m924.97 159.95v-11.176h1.7347v1.804c0.448-0.58667 0.988-1.072 1.62-1.4573 0.632-0.38667 1.3347-0.58 2.1067-0.58v1.784c-0.216-0.0467-0.448-0.0707-0.69466-0.0707-0.26267 0-0.544 0.0507-0.844 0.15067-0.30134 0.1-0.596 0.23466-0.88134 0.40533-0.284 0.16933-0.54266 0.35867-0.77466 0.56667-0.23067 0.208-0.408 0.428-0.532 0.66v7.9133z"/>
   <path d="m936.65 159.95-4.652-11.176h1.876l3.724 9.1627 3.7027-9.1627h1.8973l-4.6507 11.176z"/>
   <path d="m945 148.78h1.736v11.176h-1.736zm0.856-1.5973c-0.30933 0-0.57866-0.112-0.81066-0.336-0.23067-0.224-0.34667-0.49734-0.34667-0.82134 0-0.32266 0.116-0.60133 0.34667-0.83333 0.232-0.23067 0.50133-0.34667 0.81066-0.34667 0.324 0 0.60134 0.116 0.83334 0.34667 0.23066 0.232 0.34666 0.51067 0.34666 0.83333 0 0.324-0.116 0.59734-0.34666 0.82134-0.232 0.224-0.50934 0.336-0.83334 0.336"/>
   <path d="m958.37 153.66c0-0.416-0.0733-0.844-0.21867-1.284-0.148-0.44-0.372-0.84133-0.672-1.2027-0.30133-0.36266-0.684-0.66-1.1453-0.89066-0.46267-0.232-1.0107-0.348-1.6427-0.348-0.60266 0-1.1267 0.116-1.5733 0.348-0.448 0.23066-0.82133 0.524-1.1227 0.87866-0.30133 0.35467-0.532 0.752-0.69333 1.1907-0.16267 0.44-0.252 0.876-0.26667 1.308zm-3.4707 6.572c-0.83333 0-1.596-0.144-2.2907-0.428-0.69467-0.28533-1.292-0.68667-1.7933-1.204-0.50133-0.516-0.89466-1.1333-1.1813-1.8507-0.284-0.71733-0.42667-1.516-0.42667-2.3947 0-0.80134 0.13867-1.5627 0.416-2.28 0.27734-0.71734 0.66-1.3373 1.1453-1.8627 0.48666-0.524 1.064-0.94 1.7347-1.2493 0.672-0.308 1.408-0.46267 2.2107-0.46267 0.848 0 1.6053 0.15467 2.268 0.46267 0.66267 0.30933 1.2253 0.73333 1.688 1.2733 0.464 0.54 0.81467 1.176 1.0547 1.9093 0.23866 0.732 0.35733 1.5147 0.35733 2.348v0.43867h-9.0467c0.0307 0.52533 0.14667 1.024 0.34667 1.4933 0.2 0.47067 0.47467 0.87867 0.82133 1.2267 0.34667 0.34667 0.76 0.624 1.2373 0.832 0.48 0.20933 1.0187 0.31333 1.62 0.31333 0.64933 0 1.2733-0.124 1.8747-0.37066 0.60267-0.24667 1.1267-0.59334 1.5747-1.0413l0.832 1.1347c-0.55467 0.55467-1.2027 0.97867-1.944 1.272-0.74 0.292-1.5733 0.44-2.4987 0.44"/>
   <path d="m972.55 159.95-2.916-8.9787-2.9147 8.9787h-1.736l-3.564-11.176h1.8053l2.7307 8.908 2.9387-8.908h1.48l2.9387 8.908 2.732-8.908h1.804l-3.564 11.176z"/>
  </g>
 </g>
</svg>
