<?xml version="1.0" encoding="UTF-8"?>
<svg style="clip-rule:evenodd;fill-rule:evenodd;stroke-linejoin:round;stroke-miterlimit:1.41" version="1.1" viewBox="0 0 281 83.3" xml:space="preserve" xmlns="http://www.w3.org/2000/svg" xmlns:cc="http://creativecommons.org/ns#" xmlns:dc="http://purl.org/dc/elements/1.1/" xmlns:rdf="http://www.w3.org/1999/02/22-rdf-syntax-ns#"><title>Ivanhoé Cambridge logo</title><metadata><rdf:RDF><cc:Work rdf:about=""><dc:format>image/svg+xml</dc:format><dc:type rdf:resource="http://purl.org/dc/dcmitype/StillImage"/><dc:title/></cc:Work></rdf:RDF></metadata>
    <g transform="matrix(.189 0 0 .191 2.14 -.0191)">
        <path d="m218 0.1-21.8 1.4-10.9 1.1-10.9 1.8-10.2 2.5-10.2 3.2-10.2 3.5-9.89 3.5-9.89 4.2-9.89 4.9-9.19 5.6-8.49 5.6-8.49 6-8.49 6.69-7.79 6.69-14.8 14.8-6.69 7.79-6.69 8.49-6 8.49-11.2 18.4-4.9 9.19-4.2 9.89-3.5 9.89-3.5 10.2-3.2 10.2-2.5 10.2-1.8 10.9-2.2 21.8v22.5l2.2 21.8 1.8 10.9 2.5 10.2 3.2 10.2 3.5 10.2 3.5 9.89 4.2 9.89 4.9 9.19 11.2 18.4 6 8.49 13.4 15.6 7.39 7.79 7.39 7.39 7.79 6.69 25.5 18 9.19 4.9 9.89 4.9 19.8 8.39 10.2 3.5 20.4 5 21.8 3.6 21.8 1.4 22.5-1.4 10.9-1.8 10.2-1.8 10.9-2.5 10.2-2.5 9.89-3.5 10.2-4.2 9.89-4.2 18.4-9.79 9.19-6 8.49-5.99 7.79-6 7.79-6.69 7.79-7.39 6.69-7.79 7.39-7.79 6-7.79 6-8.49 5.99-9.19 9.79-18.4 8.39-19.8 6.39-20.4 2.5-10.2 1.8-10.9 1.8-10.9 0.699-10.9 0.699-11.6-1.4-21.8-1.8-10.9-1.8-10.9-2.5-10.2-6.39-20.4-8.39-19.8-9.79-18.4-5.99-9.19-12-17-7.39-7.79-6.69-7.39-7.79-7.39-15.6-13.4-8.49-6-18.4-11.2-9.19-4.9-9.89-4.2-10.2-3.5-9.89-3.5-10.2-3.2-10.8-2.6-10.2-1.8-10.9-1.1-10.9-0.7zm-189 189v-6l0.699-5.99 1.1-6 1.8-5.99 1.8-5.6 2.5-5.6 3.2-5.6 3.5-5.6 3.5-4.9 4.2-5.6 4.2-4.9 5.6-4.2 4.9-4.2 5.6-4.2 12.3-7.79 14.1-7.39 14.1-6 15.9-4.9 16.6-4.2 17.6-3.2 18.3-1.8 18.3-0.699 19.4 0.699v33.5h-30.8l-14.5 1.8-14.1 2.5-12.7 3.2-12.7 4.2-11.6 4.9-10.9 5.6-9.89 5.99-8.49 7.39-7.79 7.39-5.99 7.79-5.6 9.19-1.8 4.2-1.8 4.9-1.1 4.2-1.1 4.9-0.699 4.9v10.5l0.699 4.9 1.1 4.9 1.1 4.9 3.5 9.89 5.6 9.19 6 9.19 7.79 8.49 8.49 7.79 9.89 7.39 10.9 7.39 11.6 6 12.7 5.6 12.7 4.9 14.1 4.2 14.5 3.5 15.2 2.5 15.2 1.1v14.5l-19-1.8-19-3.2-18.3-4.2-17.6-4.9-16.6-6-15.2-7.39-14.5-7.79-13.4-8.49-12.7-9.89-10.2-9.89-9.89-10.2-4.2-6-6.99-11.2-3.2-5.99-2.5-5.6-3.6-12-1.1-6-0.699-6.69zm189-42v-9.19l12.3 0.7 23.2 5 10.2 3.2 10.2 3.5 9.89 4.9 9.19 4.9 8.49 4.9 7.39 5.99 6.69 6 6 6.69 4.9 6.69 4.2 7.39 2.5 7.39 1.8 7.79 0.699 7.79-0.699 7.39-1.8 7.39-2.5 7.39-4.2 6.69-4.9 6-6 5.99-6.69 5.6-7.39 4.9-8.49 4.2-9.19 3.5-9.89 3.2-10.2 2.5-10.2 1.8-11.6 1.1-11.6 0.7-12.3-0.7v-31l9.19 0.7 8.49-0.7 7.79-0.699 7.79-1.8 14.8-3.6 6.69-3.2 6-3.2 5.59-3.5 4.9-3.5 4.2-4.2 3.5-4.9 3.2-4.9 1.8-4.9 1.1-5.6 0.699-5.6-0.699-6-1.1-5.6-1.8-5.6-3.2-4.9-3.5-5.6-9.09-9.09-5.59-4.2-6-3.5-6.69-3.5-7.39-3.5-7.39-2.5-7.79-2.5-7.79-1.8-8.49-1.1zm0 31.7-8.49-0.699-17 1.4-7.79 1.1-7.39 1.8-7.39 2.5-12 6.39-11.2 6.99-4.2 4.2-3.5 4.9-5 9.79-1.1 5.59-0.699 5.6 0.699 5.6 1.1 5.6 5 11.2 3.5 4.9 4.2 4.9 5.6 4.9 5.6 4.2 5.99 3.5 6.69 3.5 6.69 3.2 7.39 3.2 7.79 2.5 8.49 1.8 8.49 1.1 8.49 0.7v9.89l-11.6-1.1-12.3-1.8-10.9-2.5-10.9-3.2-10.2-4.2-9.89-4.2-9.19-4.9-15.6-11.2-6.69-6.69-5.6-6-5.6-7.39-3.5-7.39-3.2-7.39-1.8-7.39-0.699-7.79 0.699-7.79 1.8-7.39 3.2-6.69 3.5-6.69 4.9-6.69 6-5.6 6.69-5.6 7.79-4.9 7.79-4.2 9.19-3.5 9.89-3.5 10.2-2.5 10.9-1.8 10.9-1.1h23.9zm0 177v-33.5l15.9 0.699 15.2-0.699 14.1-1.1 14.1-2.5 13.4-3.5 12.7-3.5 11.6-4.9 10.2-5.6 10.2-6.69 8.49-6.69 7.39-7.79 6.69-7.79 4.9-8.49 2.5-4.2 1.1-4.9 1.8-4.9 1.4-9.79v-9.79l-1.4-9.79-1.8-4.9-3.5-9.89-4.9-9.19-6.69-9.19-7.39-8.49-8.49-7.79-20.4-14.8-11.6-6-12.7-5.99-13.4-4.9-14.1-4.2-14.5-3.2-14.5-2.5-15.9-1.1v-15.3l19.4 1.8 19 3.2 18.3 4.2 16.9 5.6 16.6 6 15.9 6.69 14.5 7.79 13.4 9.19 12.3 9.19 10.9 10.2 9.89 10.2 3.5 5.6 4.2 5.6 3.2 5.99 3.2 5.6 5 12 3.3 18v12.7l-2.2 12-1.1 5.6-2.5 5.99-2.5 5.6-6.39 11.2-4.2 4.9-3.5 4.9-9.79 9.79-11.2 8.39-12.3 7.79-13.4 6.69-14.5 5.99-15.9 5.6-16.7 3.9-16.9 3.2-18.3 1.8-19 0.7z" style="fill-rule:nonzero"/>
        <rect x="546" y="51.2" width="30.4" height="137" style="fill-rule:nonzero"/>
        <path d="m649 189h-27.9l-33.5-104h30.3l13.4 55.4 5.7 25 2.4-10.9 3.6-14.1 14.1-55.4h26.1z" style="fill-rule:nonzero"/>
        <path d="m765 191h-3.2l-3.2-0.7-2.5-1.1-2.5-1.8-1.8-2.5-2.2-5-0.7-3.2-3.2 3.5-3.5 3.2-3.2 2.5-3.5 2.5-3.5 1.8-4.2 1.1-4.2 0.7h-5.6l-5.99-0.7-6-1.8-5.6-2.5-4.2-3.5-3.5-4.9-3.2-5.6-1.1-5.6-0.7-6.69v-4.9l1.1-4.2 1.8-4.2 1.8-3.5 2.5-3.2 3.2-3.2 3.5-2.5 6.99-3.6 4.2-1.1 9.19-1.8 9.19-1.1h11.7l1.8-0.699 1.8-1.1v-11.7l-0.699-2.5-1.1-2.5-1.8-2.5-3.2-1.8-3.2-1.1-4.2-1.1h-9.09l-4.2 0.699-6.99 2.2-5.6 3.2-4.2 3.5-9.89-19.4 4.2-3.2 14.7-5.4 4.9-1.1 5.99-0.699 12.3-0.699 12 1.4 6.69 1.8 6 3.5 2.5 1.8 2.5 2.5 2.5 3.2 1.8 3.2 1.8 3.5 1.1 4.2 0.699 4.9 0.7 5.6v50.5l0.699 2.5 1.1 1.1 1.8 0.699 2.5-0.699 1.8-0.7 1.8 17.6-7.79 1.8-4.9 0.699h-4.7zm-18.3-46.9h-7.79l-7.79 0.699-4.2 1.1-3.5 1.1-3.2 1.8-3.2 2.5-1.8 3.5-0.7 4.2 0.7 2.5 0.699 2.5 1.1 2.5 1.1 1.8 1.8 1.8 2.5 1.1 2.5 0.699h7.39l3.5-1.1 3.5-1.8 3.2-2.5 1.8-2.5 2.2-6.39v-3.5z" style="fill-rule:nonzero"/>
        <path d="m861 189v-65.5l-0.699-3.5-0.699-3.9-0.4-2.9-1.7-2.4-2.1-1.8-2.9-2.1-3.1-0.4-4.3-0.699-4.2 0.699-3.2 1.1-3.5 1.4-2.5 1.8-3.1 3.5-1.8 3.2-0.299 3.5v68h-27.6v-104h25.4v15.2l2.5-4.2 3.9-3.6 2.8-3.1 3.9-2.5 4.2-1.8 4.2-1.7 5-0.699 4.6-0.4h4.2l3.9 0.4 3.5 1.4 3.9 1 2.1 1.4 3.2 1.8 2.4 1.8 1.8 2.4 3.5 5.7 2.1 5.99 1.8 6.69v78.2z" style="fill-rule:nonzero"/>
        <path d="m972 189v-69l-0.7-3.9-0.999-2.9-1.4-2.4-1.8-1.8-3.2-2.1-2.8-0.4-4.2-0.699-4.2 0.699-3.9 1.1-2.8 1.4-2.5 1.8-3.2 3.5-1.8 3.2-0.699 3.5v68h-27.5v-143h27.5v52.6l3.2-3.9 2.8-2.8 3.2-2.5 3.5-2.5 3.9-1.7 3.5-1.4 4.3-1.1h9.09l3.6 0.4 3.8 1.4 2.9 1 3.1 1.4 3.2 1.8 2.5 1.8 1.7 2.4 2.9 5.7 2.4 5.99 1.5 6.69 0.299 7.39v70.8z" style="fill-rule:nonzero"/>
        <path d="m1067 192h-5.99l-11.2-2.2-4.9-1.8-4.2-2.5-4.19-3.2-3.5-3.2-3.2-3.5-3.19-4.2-2.5-4.2-3.6-9.79-1.1-4.9-1.1-5.6v-4.9l-0.7-5.6 2.1-16.8 1.1-4.9 1.8-4.9 2.5-4.9 2.5-4.2 3.19-3.5 3.2-3.5 3.5-3.2 4.19-3.2 4.9-2.5 4.89-1.8 4.9-1.8 12-1.4 5.99 0.7 5.6 0.699 5.59 1.8 4.9 1.8 4.19 2.5 4.2 3.2 3.5 3.2 3.19 3.5 3.2 4.2 2.5 4.2 1.8 4.2 1.8 4.9 1.09 5.6 1.1 4.9v5.6l0.7 5.6-0.7 5.6-0.69 5.6-0.71 5.6-1.09 4.9-1.8 4.9-5 8.39-3.19 4.2-3.2 3.5-3.5 3.2-4.2 3.2-4.89 2.5-4.9 1.8-4.89 1.1-6 1.1zm1.4-89.4h-3.2l-3.2 0.699-2.49 1.1-2.5 1.1-1.8 1.8-1.8 1.8-3.2 4.2-1.79 5.6-1.1 5.6-1.1 6v11.6l0.7 5.6 1.1 6 1.8 5.6 3.19 4.2 1.8 2.5 1.8 1.8 1.8 1.1 3.19 1.1 2.5 0.699h6.4l3.19-0.699 5-2.2 3.6-3.6 3.19-4.9 1.8-4.9 1.1-5.99 1.1-5.6v-11.6l-0.7-5.6-1.1-5.99-1.8-5.6-3.2-4.9-1.79-1.8-1.8-1.8-1.8-1.1-3.2-1.1-2.49-0.699z" style="fill-rule:nonzero"/>
        <path d="m1226 142h-64.4v0.699l0.7 6 1.8 5.99 2.5 4.9 3.5 3.5 4.89 3.2 4.9 2.5 5.99 1.1 6.7 0.7 6.69-0.7 6.69-1.8 6-1.8 4.89-2.5 7.4 20.1-6.7 3.2-9.19 2.5-10.2 1.8-11.2 1.4-5.99-0.7-5.6-0.699-5.59-1.1-9.8-3.6-4.19-3.2-7-6.39-3.49-3.5-2.5-4.2-2.5-4.9-2.5-4.2-1.09-5.6-1.1-5.6-0.7-5.6-0.7-5.99 0.7-10.2 1.1-4.9 1.1-4.9 1.79-4.9 1.8-4.9 5-8.39 3.2-3.5 3.49-3.5 4.2-3.2 4.19-2.5 9.8-3.6 5.59-0.699 6-0.7 5.99 0.7 5.59 0.699 4.9 1.1 4.2 1.8 6.99 5 3.5 3.2 2.5 3.2 2.49 3.5 2.5 3.5 1.1 4.2 1.8 4.2 1.8 8.49 0.69 9.19zm-45.2-41.6-4.9 0.7-4.89 1.8-3.5 2.5-2.5 3.2-1.8 3.5-1.8 3.5-0.7 3.5v3.5h39.5v-3.9l-0.7-3.5-1.1-3.5-2.5-3.5-2.49-3.2-3.5-1.8-4.2-2.1zm9.49-25.4h-20.8l21.9-30h31z" style="fill-rule:nonzero"/>
        <path d="m599 387-8.09-0.699-6.99-0.999-6.69-1.1-6.69-2.5-6-3.1-5.69-3.6-4.9-3.9-4.9-4.2-4.3-4.9-3.5-5.3-3.2-6-2.4-6.39-2.2-6.69-1.4-6.69-0.999-6.99v-14.8l0.999-7.09 1.4-6.69 1.8-6.69 2.5-6.29 2.1-6 3.9-5.99 4.2-5.7 4.2-4.9 5-4.2 5.3-3.6 6.3-3.5 6.69-2.4 7.09-1.8 8.09-1.4 8.39-0.7 11.7 0.7 10.9 1.7 8.49 2.5 8.39 3.2-10.2 25.4-6.69-3.6-7.39-1.7-6.69-1.8-6.69-0.699-5.3 0.699-4.6 0.4-4.2 2.1-4.2 1.8-3.6 1.7-3.1 3.2-2.5 2.8-2.1 3.2-2.5 3.5-2.1 3.5-2.1 8.19-1.4 8.39-0.7 8.49v4.9l0.7 5 1.4 4.9 1 4.2 1.8 4.3 1.8 3.5 2.4 3.2 3.2 3.5 3.2 2.4 2.8 2.5 3.2 1.8 3.5 1.7 3.5 1.5 3.9 1 4.2 0.699h3.6l8.09-0.699 6.99-1 6.69-2.5 5.7-3.2 8.39 24-8.39 3.5-9.89 3.2-10.9 1.8-5.3 0.3z" style="fill-rule:nonzero"/>
        <path d="m728 385h-3.5l-3.2-0.699-2.5-1.1-1.8-1.8-3.6-5-0.699-2.5-1.1-3.2-3.2 3.5-3.2 3.2-3.5 2.5-3.2 2.5-4.2 1.1-3.5 1.1-4.9 1.1h-4.9l-6.69-0.699-6-1.8-4.9-2.5-4.9-4.2-3.5-4.2-2.5-5.6-1.8-5.6-0.699-6.69 1.4-9.79 1.8-3.5 2.5-3.5 2.5-3.2 3.2-3.2 3.2-2.5 3.5-1.8 4.2-1.8 4.2-1.1 8.49-1.8 9.19-1.1h11.7l2.5-0.7 1.1-1.1 0.699-1.8v-9.89l-2.2-5-1.8-2.5-2.5-1.8-6.99-2.2h-9.89l-3.5 0.7-4.2 1.1-3.2 1.1-5.99 3.2-4.2 3.2-9.19-19 4.2-3.2 4.2-1.8 9.79-3.6 5.6-1.1 5.6-0.7 12.7-0.699h5.6l6.69 1.1 5.99 1.8 6 3.2 3.2 2.5 2.5 2.5 2.5 3.2 1.8 3.2 1.8 3.5 1.1 4.2 0.699 4.9v53.2l0.7 3.2v1.8l1.1 1.8 1.8 0.699 5-1.4 1.1 17.6-7.39 1.8-4.9 0.699zm-18.3-47h-8.49l-7.79 0.7-6.99 2.2-3.5 1.8-2.5 2.5-1.8 3.5-0.7 4.2v2.5l0.7 2.5 1.1 2.5 1.8 1.8 1.8 1.8 2.5 0.699 2.5 1.1h2.5l8.39-1.4 3.2-1.8 3.2-2.5 2.5-3.2 1.1-2.5 0.699-3.5 0.7-3.2z" style="fill-rule:nonzero"/>
        <path d="m877 383v-69.4l-0.3-3.5-1.4-3.2-1.1-2.5-1.8-1.7-2.4-1.8-3.2-1.4h-3.5l-3.9 0.699-2.8 0.7-3.2 1.8-1.8 1.7-3.1 3.9-1.1 2.8-1.4 3.9v68h-27.2v-69.4l-0.699-3.5-0.999-3.2-1.4-2.5-1.8-1.7-2.5-1.8-3.1-1.4h-3.6l-3.5 0.699-3.2 0.7-3.1 1.8-1.8 1.7-2.8 3.9-1.4 2.8-0.699 3.9-0.4 4.3v63.7h-26.8v-104h25v13.7l2.9-3.5 2.4-3.5 3.2-2.5 3.5-2.5 3.6-2.5 3.8-0.999 5-1.4h9.49l4.2 1.4 4.3 0.999 3.8 2.5 2.9 2.5 3.1 2.8 2.5 4.2 2.5 4.6 2.4-4.6 2.9-3.5 3.1-3.2 3.6-2.1 4.2-2.4 3.9-1.8 4.9-1.4h8.79l3.9 0.7 3.5 0.699 3.2 0.999 2.5 1.8 2.8 1.8 2.1 1.7 2.1 2.5 3.2 5.7 2.5 5.9 1 6.69 0.699 7.49v71.1z" style="fill-rule:nonzero"/>
        <path d="m976 387-6-0.699-5.99-1.8-5.6-2.5-4.9-3.5v4.9h-26.1v-144h27.5v54.3l5.6-7.39 6.39-5 3.5-2.5 3.5-1.1 4.9-1.1h9.09l4.9 1.1 4.2 1.8 3.5 1.8 3.5 2.5 3.19 3.2 3.2 3.5 2.5 3.5 1.8 4.2 1.79 4.2 3.2 9.19 1.8 9.19 0.7 9.89-0.7 9.19-1.8 9.89-1.8 4.2-1.8 4.9-1.79 4.2-2.5 4.9-3.2 3.5-6.99 6.99-3.5 2.5-4.9 2.5-4.9 1.8-5.6 1.1zm-3.9-87-6.99 1.4-3.2 1.8-2.5 2.5-2.5 3.2-1.8 3.2-0.7 3.2v42l0.7 2.5 1.1 2.5 3.6 3.6 3.2 1.1 3.5 0.7 4.2 0.699h3.2l3.2-0.699 5-2.2 3.6-3.6 3.2-4.9 1.8-4.9 2.2-11.2v-11.2l-0.7-5.99-1.1-5.6-1.8-5.6-3.2-4.9-1.8-2.5-1.8-1.1-1.4-1.4-2.5-1.1-3.2-0.7z" style="fill-rule:nonzero"/>
        <path d="m1093 306-4.6-2.2-2.1-0.3h-6.69l-3.2 1-2.5 1.5-1.79 0.999-2.4 3.2-1.1 2.8-0.7 3.9v66.2h-27.5v-92.7l-0.7-11.2h24.3v15.8l5-7.39 2.39-3.2 3.2-2.4 3.5-2.5 3.2-1.1 4.29-0.999 4.9-0.699 5.29 0.699 4.2 0.999z" style="fill-rule:nonzero"/>
        <path d="m1129 266-3.49-0.699-3.2-0.7-2.5-1.1-2.5-1.8-1.09-2.5-1.8-2.5-0.7-2.5v-6.39l0.7-3.2 1.8-2.5 1.09-1.8 2.5-1.8 2.5-1.1 3.2-0.699 3.49-0.7 6.4 1.4 2.49 1.1 2.5 1.8 1.8 1.8 1.1 2.5 1.4 6.39-0.7 3.2-0.7 2.5-1.1 2.5-1.8 2.5-2.5 1.8-2.49 1.1-3.2 0.7zm-14.1 117v-104h27.5v104z" style="fill-rule:nonzero"/>
        <path d="m1230 383v-14.5l-5.59 7.39-3.2 3.2-3.2 2.5-3.5 2.5-4.19 1.1-4.2 1.1-5.59 0.699-4.9-0.699-4.89-1.1-4.2-1.8-4.19-1.8-3.5-3.2-3.2-3.2-3.2-3.5-2.49-4.2-2.5-4.2-1.8-4.2-3.2-9.89-1.1-9.89-0.7-9.19 0.7-9.19 1.8-9.89 1.1-4.9 1.8-4.2 5-8.39 3.19-3.5 3.2-3.5 3.5-3.2 4.19-2.5 9.79-3.6 5.6-1.1h5.99l6 0.699 5.59 1.1 5.6 2.5 4.19 3.2v-44.4h27.5v144zm-1.7-74.3v-2.5l-1.1-3.2-1.09-1.8-1.1-2.5-2.5-1.1-3.2-1.1-8.39-1.4-3.2 0.699h-3.2l-2.49 1.1-1.8 1.1-3.5 3.2-3.2 4.2-1.79 4.2-1.1 5.6-0.7 5.6v11.2l0.7 5.99 1.1 6 1.79 5.99 2.5 4.9 1.8 2.5 1.8 1.8 2.5 1.1 2.49 1.1 6.4 1.4 4.19-0.7 3.2-1.1 3.2-1.8 2.5-1.8 2.5-3.2 1.79-3.2 0.7-3.5v-3.5z" style="fill-rule:nonzero"/>
        <path d="m1316 425-6.69-0.7-7.39-0.699-7.8-1.8-7.39-2.5-3.5-1.8-3.19-1.8-3.2-2.5-2.5-2.5-1.8-3.2-1.1-3.2-1.09-3.5-0.7-3.5 0.7-4.2 1.09-3.5 1.1-3.2 1.8-3.2 2.5-2.5 2.5-1.8 5.59-3.2-3.49-2.5-3.2-3.5-2.2-5-0.7-2.5-0.7-3.2 0.7-4.2 0.7-3.5 2.2-6.39 3.5-4.9 4.19-3.5-2.5-2.5-2.49-3.2-1.1-2.5-1.8-3.5-1.8-6.69-0.7-7.39 0.7-6.69 1.8-6.69 3.2-6 2.49-3.2 5-5 3.2-2.5 3.49-1.8 7-2.2 4.19-1.1 4.9-0.7h4.89l12 1.4 4.9 1.8 4.89 2.5h28.6v19.4h-12l1.1 4.9 0.7 6-0.7 7.39-1.8 6-3.5 5.99-1.79 3.2-5 5-3.2 1.8-3.49 1.8-3.5 1.8-4.2 1.1-8.39 1.4-4.9 0.699-7.39-0.699-5.99-1.8h-4.7l-1.8 1.8-1.1 2.5-0.7 3.2 0.7 3.2 1.8 2.5 3.2 1.8 4.2 0.699h33.5l5.99 0.699 5.99 1.1 4.9 1.8 4.2 3.2 3.49 4.2 2.5 4.2 1.8 5.6 0.7 6.69-0.7 4.9-0.7 4.2-1.8 3.5-1.8 4.2-2.49 3.2-2.5 3.2-3.2 3.2-3.5 2.5-3.49 1.8-4.2 1.8-8.49 2.5-9.19 1.8zm13.4-42.7h-31.8l-2.5 1.8-1.1 3.2-0.69 4.9 0.69 4.2 1.8 3.2 2.5 2.5 3.2 2.5 6.99 2.2 7.39 0.699 6-0.699 4.9-0.699 4.19-1.8 3.5-1.8 2.5-2.5 1.79-2.5 0.7-2.5 0.7-3.2v-2.1l-1.1-1.8-0.7-1.8-1.09-1.8-1.8-0.699-1.8-1.1zm-12.7-89.8-4.19 0.7-3.2 1.8-2.5 1.8-1.8 3.2-1.79 3.2-1.1 3.2v3.2l-0.7 3.2 0.7 3.5v3.2l2.2 6.39 1.79 2.5 2.5 2.5 3.5 1.1h6.99l3.5-1.8 2.5-1.8 1.79-2.5 1.8-3.2 0.7-3.2 0.7-3.5 0.7-3.2-1.1-6.69-0.7-3.2-1.1-3.2-1.79-2.5-3.2-2.5-3.2-1.1z" style="fill-rule:nonzero"/>
        <path d="m1466 336h-64.4v0.7l0.7 6.69 1.8 5.99 3.19 4.9 3.5 3.5 4.2 3.2 5.59 2.5 5.99 1.1 6 0.699 7.39-0.699 6.7-1.8 5.99-1.8 4.9-2.5 7.39 20.1-7.39 3.2-8.5 2.5-10.2 1.8-11.2 1.4-5.99-0.699-5.6-0.7-5.59-1.1-4.9-1.8-4.89-1.8-4.2-3.2-4.19-3.2-3.5-3.2-3.2-4.2-3.2-3.5-2.49-4.9-3.6-9.79-1.1-5.6-0.7-5.6v-5.99l0.7-10.2 0.7-4.9 1.1-4.9 1.8-4.9 1.8-4.9 2.49-4.2 3.2-4.2 3.2-3.5 3.5-3.5 3.49-3.2 4.2-2.5 4.89-1.8 5.6-1.8 5.59-1.1h11.6l5.6 1.1 4.89 1.1 4.2 1.8 4.2 2.5 3.49 2.5 6.4 6.39 2.49 3.5 1.8 3.5 1.8 4.2 1.1 4.2 1.8 8.49 0.7 9.19zm-44.4-40.6-5.6 0.7-4.19 1.8-3.5 2.5-2.5 3.2-2.5 3.5-1.09 3.5-1.4 6.99h40.2v-4.2l-0.7-3.5-1.8-3.5-1.79-3.5-3.2-3.2-3.2-2.5-4.2-1.1z" style="fill-rule:nonzero"/>
    </g>
</svg>
