<svg viewBox="235 390 525 220" version="1.1" xmlns="http://www.w3.org/2000/svg"><path fill="rgb(20,20,23)" stroke="rgb(20,20,23)" stroke-width="1" opacity="1" d="M 298.5 404 Q 303 403.5 303 404.5 L 303 531.5 L 307.5 528 L 336 502.5 Q 340.8 496.8 341 486.5 L 337 475 L 341.5 476 L 342.5 475 L 359.5 475 L 360.5 476 L 381 476.5 Q 368.9 480.4 360.5 488 L 335 511.5 L 338 519.5 L 375 581.5 L 387 597 L 341.5 597 L 340.5 596 Q 338.8 598.8 337 594.5 L 303.5 536 L 303 571.5 L 306 585.5 L 310 597 L 305.5 596 L 304.5 597 L 257.5 597 Q 254.8 595.8 257 594.5 L 262 572.5 L 262 528.5 L 263 527.5 L 262 526.5 L 262 445.5 L 258 430.5 L 250 418.5 L 254.5 416 L 261.5 415 L 298.5 404 Z " /><path fill="rgb(20,20,23)" stroke="rgb(20,20,23)" stroke-width="1" opacity="1" d="M 572.5 413 L 583.5 413 Q 590.9 415.1 595 420.5 L 600 430.5 L 600 437.5 Q 597.7 448.2 589.5 453 L 581.5 456 L 573.5 456 Q 565 453.5 560 447.5 L 556 437.5 L 556 430.5 Q 557.9 421.4 564.5 417 L 572.5 413 Z " /><path fill="rgb(20,20,23)" stroke="rgb(20,20,23)" stroke-width="1" opacity="1" d="M 443.5 471 Q 448 470.5 448 471.5 L 448 488.5 L 447 492.5 L 448.5 495 L 458.5 483 Q 466.2 476.2 477.5 473 Q 485.8 470.3 498.5 472 Q 511.6 474.4 519 482.5 L 526 493.5 L 528 503.5 L 528 572.5 L 533 597 L 482.5 597 Q 481.5 597 482 592.5 L 487 571.5 L 487 503.5 Q 485.5 496.6 480.5 493 Q 475.1 489.4 464.5 491 Q 454.6 494.1 449 501.5 L 449 572.5 L 454 597 L 403.5 597 L 402 595.5 L 405 587.5 L 408 571.5 L 408 513.5 L 405 500.5 L 396 485.5 L 400.5 483 L 425.5 477 L 443.5 471 Z " /><path fill="rgb(20,20,23)" stroke="rgb(20,20,23)" stroke-width="1" opacity="1" d="M 598.5 471 L 602 471.5 L 602 572.5 L 607 597 L 556.5 597 L 555 595.5 L 560 577.5 L 561 553.5 L 562 552.5 L 561 551.5 L 561 512.5 L 558 500.5 L 549 485.5 L 550.5 484 L 598.5 471 Z " /><path fill="rgb(20,20,23)" stroke="rgb(20,20,23)" stroke-width="1" opacity="1" d="M 624.5 476 L 687 476.5 Q 683.3 480.8 685 490.5 Q 690.5 508 700.5 521 L 704 518.5 L 714 502.5 L 717 493.5 L 717 482.5 L 714 476 L 746.5 476 L 747 478 L 745.5 478 L 728 495.5 L 704 527.5 L 736 580.5 L 750 595.5 L 748.5 597 L 688.5 597 Q 685.8 595.8 688 594.5 L 689 592.5 L 689 581.5 L 683 566.5 L 672 548 L 669 549.5 L 655 570.5 L 652 580.5 L 652 588.5 L 655 597 L 652.5 596 L 651.5 597 L 622 597 L 626.5 591 L 643 575.5 L 668 541.5 L 639 493.5 L 624.5 476 Z " /><path fill="rgb(254,254,254)" stroke="rgb(254,254,254)" stroke-width="1" opacity="1" d="M 283.5 400 L 287 401.5 Q 287.8 403.8 285.5 403 L 283.5 400 Z " /><path fill="rgb(254,254,254)" stroke="rgb(254,254,254)" stroke-width="1" opacity="1" d="M 289.5 400 L 291 400.5 Q 288.8 401.7 291.5 403 L 295 402.5 L 292 401.5 L 294.5 401 L 296.5 401 L 300.5 400 L 300 401.5 L 300.5 403 L 303.5 401 L 303.5 404 L 298 403 L 297.5 405 L 293.5 404 L 293.5 405 L 295 405.5 L 292.5 406 L 291 403 L 288 401.5 L 289.5 400 Z " /><path fill="rgb(254,254,254)" stroke="rgb(254,254,254)" stroke-width="1" opacity="1" d="M 281.5 403 Q 284.1 402.3 283 405 L 280 404.5 L 281.5 403 Z " /><path fill="rgb(254,254,254)" stroke="rgb(254,254,254)" stroke-width="1" opacity="1" d="M 285.5 404 L 289 404 Q 287.9 406.7 290.5 406 L 290.5 407 L 288.5 406 L 285.5 408 L 284 407.5 Q 284.8 410.1 281.5 409 L 280 408.5 Q 280.8 410.8 278.5 410 L 280 407.5 L 280.5 406 L 282.5 406 L 285.5 404 Z M 287 405 L 286 407 L 288 406 L 287 405 Z " /><path fill="rgb(254,254,254)" stroke="rgb(254,254,254)" stroke-width="1" opacity="1" d="M 257.5 408 L 263.5 409 L 264.5 408 L 272.5 408 L 274.5 409 L 276.5 408 L 276.5 409 L 275 409.5 L 275.5 411 L 272.5 410 L 272.5 412 L 266.5 413 L 264 411.5 L 265 413.5 L 262.5 412 L 260 411.5 L 264 410.5 L 258.5 410 L 257.5 408 Z M 267 409 L 266 411 L 272 410 L 267 409 Z " /><path fill="rgb(254,254,254)" stroke="rgb(254,254,254)" stroke-width="1" opacity="1" d="M 562.5 408 L 567.5 409 L 570.5 408 Q 572 410.5 577.5 409 L 579.5 408 L 579.5 409 L 578 409.5 L 581.5 410 L 585.5 408 L 588 409.5 L 585.5 410 Q 584.3 407.8 583 410.5 L 590.5 411 L 592 412.5 L 590.5 412 L 583.5 412 L 575.5 410 L 576.5 412 L 582 412.5 L 570.5 414 L 570.5 413 L 572 412.5 L 565.5 410 L 564.5 412 L 568 412.5 L 563.5 416 L 563 414.5 L 564 412.5 L 561.5 414 Q 558.1 414.9 560 409.5 L 561 409.5 L 561.5 412 L 563 409.5 L 562.5 408 Z M 570 410 L 570 411 L 572 411 L 570 410 Z M 573 411 L 573 412 L 575 412 L 573 411 Z " /><path fill="rgb(254,254,254)" stroke="rgb(254,254,254)" stroke-width="1" opacity="1" d="M 589.5 408 L 592 409.5 L 590.5 410 L 589.5 408 Z " /><path fill="rgb(254,254,254)" stroke="rgb(254,254,254)" stroke-width="1" opacity="1" d="M 256.5 412 L 262 414.5 L 259.5 415 L 256.5 412 Z " /><path fill="rgb(254,254,254)" stroke="rgb(254,254,254)" stroke-width="1" opacity="1" d="M 588.5 413 L 592 414.5 L 590 415.5 L 590.5 417 L 589.5 414 L 587.5 415 L 588.5 413 Z " /><path fill="rgb(254,254,254)" stroke="rgb(254,254,254)" stroke-width="1" opacity="1" d="M 256.5 414 L 257.5 416 Q 254.7 416.7 256.5 414 Z " /><path fill="rgb(254,254,254)" stroke="rgb(254,254,254)" stroke-width="1" opacity="1" d="M 567.5 414 L 569 414.5 L 565.5 417 L 567.5 414 Z " /><path fill="rgb(254,254,254)" stroke="rgb(254,254,254)" stroke-width="1" opacity="1" d="M 560.5 415 Q 562.8 414.3 562 416.5 L 560 419.5 L 564 417.5 L 558.5 424 L 559 422.5 L 560 420.5 L 559 418 L 557 417.5 L 561 416.5 L 560.5 415 Z " /><path fill="rgb(254,254,254)" stroke="rgb(254,254,254)" stroke-width="1" opacity="1" d="M 303.5 416 L 304 520.5 L 305 523.5 L 305 525.5 L 307 528.5 L 303 531.5 Q 302.3 529.3 304.5 530 L 304.5 529 L 303 528.5 L 303.5 416 Z " /><path fill="rgb(254,254,254)" stroke="rgb(254,254,254)" stroke-width="1" opacity="1" d="M 552.5 416 L 555 416.5 L 552.5 417 L 552.5 416 Z " /><path fill="rgb(254,254,254)" stroke="rgb(254,254,254)" stroke-width="1" opacity="1" d="M 594 416 L 596.5 417 L 598.5 416 L 600 418.5 L 599 418.5 Q 599.8 416.3 597.5 417 Q 594.8 422.8 592 417.5 L 594 417.5 L 594 416 Z " /><path fill="rgb(254,254,254)" stroke="rgb(254,254,254)" stroke-width="1" opacity="1" d="M 250.5 417 L 251 419.5 Q 256.8 425.2 259 434.5 L 258 439.5 L 261 440.5 L 260.5 443 L 258 442 Q 257.3 445.1 260 444.5 L 260 452.5 L 259 452.5 Q 260.2 444.6 257 445.5 L 257 435.5 L 258 433.5 L 256 429.5 L 253 423 L 250 424.5 L 250.5 426 L 252 425.5 L 253 429 Q 256 428 255 431 Q 252.3 432.1 253 429.5 L 252 427 Q 248.3 425.8 250 431 L 252 431.5 L 249 432 L 248 424 L 250 423.5 L 248 423 L 250.5 417 Z " /><path fill="rgb(254,254,254)" stroke="rgb(254,254,254)" stroke-width="1" opacity="1" d="M 554 418 L 556 418 L 556 420 Q 558.7 418.9 558 421.5 L 557 424.5 L 558 426.5 L 555 435.5 L 557 439.5 L 554 438.5 L 555 445.5 L 554 445.5 L 554 440.5 Q 551.3 441.1 552 438 Q 555.3 439.3 554 434.5 L 552 434.5 L 553 432.5 L 552 428.5 L 553.5 426 L 555.5 430 L 556 420.5 L 554 420.5 L 554 418 Z M 554 428 L 553 431 L 554 431 L 554 428 Z M 555 431 L 554 434 L 555 434 L 555 431 Z " /><path fill="rgb(254,254,254)" stroke="rgb(254,254,254)" stroke-width="1" opacity="1" d="M 597.5 419 L 596 421.5 L 597.5 423 L 598.5 421 L 600 425.5 L 598 426.5 L 599 423.5 Q 597 425.2 595 421.5 L 597.5 419 Z " /><path fill="rgb(254,254,254)" stroke="rgb(254,254,254)" stroke-width="1" opacity="1" d="M 552.5 421 L 553 424.5 L 552 424.5 L 552.5 421 Z " /><path fill="rgb(254,254,254)" stroke="rgb(254,254,254)" stroke-width="1" opacity="1" d="M 599.5 438 L 600 440.5 L 599 440.5 L 599.5 438 Z " /><path fill="rgb(254,254,254)" stroke="rgb(254,254,254)" stroke-width="1" opacity="1" d="M 556 442 L 558 442.5 L 556 443.5 L 556 442 Z " /><path fill="rgb(254,254,254)" stroke="rgb(254,254,254)" stroke-width="1" opacity="1" d="M 598.5 442 L 600 446.5 L 600 448.5 L 599 452.5 L 600 454.5 L 597.5 456 L 594.5 455 L 590.5 456 L 590 453.5 L 598.5 442 Z M 596 447 L 596 449 L 598 448 L 596 447 Z M 598 450 L 595 454 L 598 452 L 598 450 Z M 591 452 L 591 454 L 593 453 L 591 452 Z M 597 453 Q 596 456 599 455 Q 600 452 597 453 Z " /><path fill="rgb(254,254,254)" stroke="rgb(254,254,254)" stroke-width="1" opacity="1" d="M 558.5 444 L 558 445.5 L 558.5 447 L 560 446.5 Q 558.5 449.5 557 446.5 L 558.5 444 Z " /><path fill="rgb(254,254,254)" stroke="rgb(254,254,254)" stroke-width="1" opacity="1" d="M 261.5 445 L 262 451.5 L 261 451.5 L 261.5 445 Z " /><path fill="rgb(254,254,254)" stroke="rgb(254,254,254)" stroke-width="1" opacity="1" d="M 552.5 445 L 553 447.5 L 552 447.5 L 552.5 445 Z " /><path fill="rgb(254,254,254)" stroke="rgb(254,254,254)" stroke-width="1" opacity="1" d="M 256.5 447 L 258 449.5 L 257 449.5 L 256.5 447 Z " /><path fill="rgb(254,254,254)" stroke="rgb(254,254,254)" stroke-width="1" opacity="1" d="M 561.5 449 L 570 454.5 L 567.5 456 L 565.5 456 Q 561 457 560 454.5 L 561 452.5 L 561 450.5 L 561.5 449 Z M 564 453 L 566 455 Q 567 452 564 453 Z " /><path fill="rgb(254,254,254)" stroke="rgb(254,254,254)" stroke-width="1" opacity="1" d="M 257.5 452 L 258 454.5 L 257 454.5 L 257.5 452 Z " /><path fill="rgb(254,254,254)" stroke="rgb(254,254,254)" stroke-width="1" opacity="1" d="M 588.5 453 L 589 454.5 L 586 456 L 586.5 454 L 588 454.5 L 588.5 453 Z " /><path fill="rgb(254,254,254)" stroke="rgb(254,254,254)" stroke-width="1" opacity="1" d="M 260.5 454 L 261 463.5 L 260 463.5 L 260.5 454 Z " /><path fill="rgb(254,254,254)" stroke="rgb(254,254,254)" stroke-width="1" opacity="1" d="M 256 456 L 258 456.5 L 258 464 L 256 463.5 L 256 456 Z " /><path fill="rgb(254,254,254)" stroke="rgb(254,254,254)" stroke-width="1" opacity="1" d="M 445 464 L 448 464.5 L 448 466.5 L 447.5 468 L 446.5 466 L 443 467.5 L 448 469 Q 449.3 472 445.5 471 L 445.5 469 L 441.5 470 L 441.5 469 L 443 468.5 L 440 467.5 L 445 466 L 445 464 Z " /><path fill="rgb(254,254,254)" stroke="rgb(254,254,254)" stroke-width="1" opacity="1" d="M 480.5 464 Q 485 463 486 465.5 Q 485.3 467.8 487.5 467 L 490.5 468 L 490.5 467 L 488 465.5 L 489.5 466 L 493 465.5 L 492.5 464 L 496 465 Q 497.3 468.3 492.5 467 L 492.5 468 Q 497.3 466.7 496 470 L 494 470.5 L 496 471.5 L 485.5 472 L 486.5 470 L 488 469.5 L 485 469 L 484 465 Q 479.6 466 480.5 464 Z M 490 469 L 491 471 L 493 470 L 490 469 Z " /><path fill="rgb(254,254,254)" stroke="rgb(254,254,254)" stroke-width="1" opacity="1" d="M 598.5 464 Q 601.8 462.9 601 465.5 L 600.5 467 Q 603.5 466.1 602 470.5 L 604 472.5 L 604 551.5 L 605.5 554 L 606 472.5 L 603 468.5 L 604.5 464 Q 603.7 469.8 607 471.5 L 607 553.5 L 608 556 L 605.5 557 L 603 552.5 L 603 472.5 L 601.5 471 L 595.5 472 L 594 469 Q 591.3 470.1 592 467.5 L 593.5 468 L 600 467.5 L 592 465.5 L 594.5 465 L 599.5 466 L 599.5 465 L 598.5 464 Z M 601 468 L 596 470 L 596 471 L 601 470 L 601 468 Z " /><path fill="rgb(254,254,254)" stroke="rgb(254,254,254)" stroke-width="1" opacity="1" d="M 606 465 L 608 465.5 L 607 467.5 L 608 469.5 L 606 468.5 L 606 465 Z " /><path fill="rgb(254,254,254)" stroke="rgb(254,254,254)" stroke-width="1" opacity="1" d="M 482.5 469 Q 485.1 468.3 484 471 L 480 470.5 L 482.5 469 Z " /><path fill="rgb(254,254,254)" stroke="rgb(254,254,254)" stroke-width="1" opacity="1" d="M 440.5 471 L 439.5 473 L 438 472.5 L 440.5 471 Z " /><path fill="rgb(254,254,254)" stroke="rgb(254,254,254)" stroke-width="1" opacity="1" d="M 592.5 471 L 593.5 473 L 591 472.5 L 592.5 471 Z " /><path fill="rgb(254,254,254)" stroke="rgb(254,254,254)" stroke-width="1" opacity="1" d="M 337.5 472 L 339.5 472 L 341.5 473 L 343 472.5 L 341.5 476 L 340.5 473 L 339 473 L 339 475 Q 336.3 473.9 337 476.5 L 339 480.5 L 338 483.5 L 339 486 L 341 486 L 341 491 L 338 492.5 L 338.5 494 L 340 493.5 L 336.5 501 L 337 499.5 Q 337.8 496.9 334.5 498 L 334.5 497 L 337.5 498 L 338 494.5 L 337 494.5 L 336.5 496 L 336 488 L 338 488.5 L 337 491.5 L 338 491.5 L 339 487.5 Q 336.4 486.1 337 481.5 L 338 479.5 L 336 479.5 L 337 477.5 L 336 475.5 L 337.5 472 Z " /><path fill="rgb(254,254,254)" stroke="rgb(254,254,254)" stroke-width="1" opacity="1" d="M 344.5 472 L 368.5 472 Q 367.9 474.8 371 474 Q 369.9 471.3 372.5 472 L 373.5 475 L 377 474.5 L 374 473.5 L 378.5 472 L 380.5 473 L 382.5 472 L 384 473.5 L 383.5 476 L 382 475.5 L 381 477.5 L 384 478.5 L 381.5 480 L 379.5 480 L 376.5 479 L 374.5 482 L 373 482.5 L 376 487 Q 371.5 487.8 369.5 485 Q 365.3 486.8 368 488.5 Q 368.8 490.8 366.5 490 L 366.5 488 Q 363.9 487.2 365 490.5 L 364.5 492 L 368 492.5 L 365 494.5 L 364.5 496 L 363.5 492 L 358.5 494 L 356 493 Q 354.6 496.7 360.5 495 L 362 494.5 Q 362.6 497.3 356.5 496 L 354.5 495 L 350 498.5 L 350.5 500 L 352 499.5 L 352 501.5 Q 352.8 503.8 350.5 503 L 349 503.5 L 349.5 502 L 345.5 504 Q 344.3 501.7 343 504.5 L 343.5 506 Q 341.8 503.2 340 507.5 L 340.5 509 Q 342.3 505.3 344 508.5 Q 340.5 509 341 513.5 L 343 517.5 L 342 517.5 L 340.5 514 L 339.5 517 L 336.5 513 L 335 513.5 L 337.5 512 L 340 513.5 L 339 511.5 L 341 510.5 L 338.5 509 L 337.5 511 L 337 509.5 Q 351.2 493.7 369.5 482 L 369.5 484 L 374.5 486 L 373.5 484 Q 371.3 484.8 372 482.5 L 371.5 481 L 373 481.5 L 374.5 479 L 377.5 478 L 379.5 479 L 379.5 477 L 381 476.5 L 360 475.5 L 368 475 L 367.5 473 L 344.5 473 L 344.5 472 Z M 378 473 L 379 475 L 381 475 L 378 473 Z M 368 484 L 367 486 L 369 485 L 368 484 Z M 365 486 L 364 488 L 366 487 L 365 486 Z M 363 488 L 358 492 L 359 493 Q 360 490 363 491 L 363 488 Z M 347 500 L 348 502 L 350 501 L 347 500 Z " /><path fill="rgb(254,254,254)" stroke="rgb(254,254,254)" stroke-width="1" opacity="1" d="M 416.5 472 L 420 472.5 L 416 473 Q 414.9 475.7 417.5 475 L 421.5 477 L 425.5 476 L 425.5 477 L 420.5 478 L 418 477 L 417.5 479 Q 416 476.5 414.5 480 L 412 479.5 L 416 477.5 L 414.5 477 L 411 478 Q 412.3 482.1 409 481 L 408 475 L 414.5 474 L 416.5 472 Z M 413 475 L 413 476 L 416 476 L 413 475 Z " /><path fill="rgb(254,254,254)" stroke="rgb(254,254,254)" stroke-width="1" opacity="1" d="M 422.5 472 Q 424.8 474.7 430.5 474 L 436.5 472 L 435.5 474 L 427.5 476 L 422.5 473 L 422.5 472 Z " /><path fill="rgb(254,254,254)" stroke="rgb(254,254,254)" stroke-width="1" opacity="1" d="M 427.5 472 L 430 472.5 L 427.5 473 L 427.5 472 Z " /><path fill="rgb(254,254,254)" stroke="rgb(254,254,254)" stroke-width="1" opacity="1" d="M 459.5 472 L 460 474.5 L 456.5 476 L 456.5 475 L 459 473.5 L 459.5 472 Z " /><path fill="rgb(254,254,254)" stroke="rgb(254,254,254)" stroke-width="1" opacity="1" d="M 465.5 472 L 470.5 473 L 474.5 472 L 477 473.5 L 466.5 478 L 467.5 476 L 471 474.5 L 468.5 474 L 466.5 475 L 465 474.5 L 463.5 477 Q 459.8 475.8 461 479.5 L 463.5 478 L 465 478.5 L 453.5 488 L 457 483.5 L 456 482.5 L 457.5 480 Q 460.1 480.8 459 477.5 L 464 475 L 465.5 472 Z M 472 473 L 472 474 L 474 474 L 472 473 Z M 460 480 L 459 482 L 461 481 L 460 480 Z " /><path fill="rgb(254,254,254)" stroke="rgb(254,254,254)" stroke-width="1" opacity="1" d="M 478.5 472 L 481 472.5 L 478.5 473 L 478.5 472 Z " /><path fill="rgb(254,254,254)" stroke="rgb(254,254,254)" stroke-width="1" opacity="1" d="M 499.5 472 L 503 472.5 L 499.5 473 L 499.5 472 Z " /><path fill="rgb(254,254,254)" stroke="rgb(254,254,254)" stroke-width="1" opacity="1" d="M 505.5 472 L 507 472.5 L 506.5 474 L 508 474.5 L 506.5 475 L 504 473.5 L 505.5 472 Z " /><path fill="rgb(254,254,254)" stroke="rgb(254,254,254)" stroke-width="1" opacity="1" d="M 509 472 L 511 472.5 L 509 473.5 L 509 472 Z " /><path fill="rgb(254,254,254)" stroke="rgb(254,254,254)" stroke-width="1" opacity="1" d="M 515.5 472 L 517 475 L 519.5 474 L 520 476 Q 515.9 474.7 517 478 L 519.5 477 L 519 478.5 L 518.5 480 L 514.5 476 L 512.5 476 L 512.5 477 L 517 480.5 L 513.5 478 L 509 475.5 L 510.5 476 L 512 475.5 Q 509.8 474.3 512.5 473 L 512.5 475 L 515 473.5 L 515.5 472 Z " /><path fill="rgb(254,254,254)" stroke="rgb(254,254,254)" stroke-width="1" opacity="1" d="M 560 472 L 568 473 L 568.5 475 L 569 473 L 573.5 475 L 573.5 473 L 575.5 474 Q 576.8 471 581 472 L 581.5 474 L 587.5 472 L 590 473.5 L 588.5 474 L 585.5 473 L 585.5 474 L 587 474.5 L 585.5 475 L 582.5 474 L 582.5 476 L 579 475 Q 580 478 577 477 Q 578.3 474 574.5 475 L 572 476 Q 573.5 479.8 570.5 479 L 568 478 Q 569 481 566 480 Q 567.1 476.7 563 478 Q 561.9 480.7 564.5 480 L 564.5 481 L 551.5 484 L 549 482.5 L 550 484.5 L 549 486.5 L 553 491.5 L 551 491.5 L 552.5 494 Q 553.7 491.7 555 494.5 L 557 498.5 L 556 500.5 L 558 500.5 L 557 502.5 L 559 503 L 560 508.5 L 559 510.5 Q 561.8 511.3 561 515.5 L 560 515.5 L 560 512 Q 557.3 513.1 558 510.5 L 557 506.5 L 558 504.5 L 556 503.5 Q 554.2 509.8 557 511.5 L 555 512 L 553 504.5 L 553 502.5 L 554 498.5 L 552 498.5 L 553 496.5 L 549.5 492 L 548 492.5 L 549 495.5 L 546 494.5 Q 546.8 496.8 544.5 496 L 544 493.5 L 544 492 L 548 492 L 548 490.5 L 545.5 490 L 544 489.5 L 548 488.5 L 546 487.5 L 548 486.5 L 546 485.5 L 548 484.5 L 547.5 482 Q 545.3 481.3 546 483.5 L 544 482.5 L 546 482 Q 544.7 478.7 549.5 480 L 551.5 480 L 557.5 482 L 561 479.5 L 560 472 Z M 561 473 L 561 477 L 565 475 L 565 473 L 561 473 Z M 577 473 Q 576 476 579 475 Q 580 472 577 473 Z M 566 475 Q 565 479 568 478 Q 569 474 566 475 Z M 569 475 L 569 477 L 572 476 L 569 475 Z M 551 481 Q 550 484 554 483 Q 555 480 551 481 Z M 550 488 L 549 491 L 551 491 L 550 488 Z M 555 500 L 554 503 L 556 503 L 555 500 Z M 555 504 L 554 507 L 555 507 L 555 504 Z " /><path fill="rgb(254,254,254)" stroke="rgb(254,254,254)" stroke-width="1" opacity="1" d="M 616.5 472 L 619 476.5 L 616.5 480 L 616 478.5 L 617 474.5 L 616.5 472 Z " /><path fill="rgb(254,254,254)" stroke="rgb(254,254,254)" stroke-width="1" opacity="1" d="M 620 472 L 623.5 474 L 624.5 472 L 625 474 L 627.5 475 L 631 472.5 L 630 474.5 L 680 475 L 679.5 473 L 632.5 473 L 632.5 472 L 680.5 472 L 681 474.5 L 684.5 472 L 686 472.5 L 684 473 Q 682.9 475.7 685.5 475 L 688 473.5 L 687 475.5 L 687 477.5 L 688 483.5 L 687 485.5 L 688 487.5 L 687 487.5 Q 687.8 485.3 685.5 486 L 687 483.5 L 686 477.5 L 686.5 476 L 624 476.5 L 636 489.5 L 634 489.5 L 635.5 493 L 637.5 492 L 638.5 495 L 641 496.5 L 642 498.5 L 640 497.5 Q 640.8 495.3 638.5 496 L 632 495.5 L 633 492.5 L 632 490.5 L 632.5 487 L 625.5 488 Q 622.7 486.8 625 485.5 L 624 482.5 L 625 480.5 L 623.5 478 L 620 480 L 622 475.5 L 620 472 Z M 628 481 Q 626 484 629 483 L 628 481 Z M 626 482 Q 624 485 627 484 L 626 482 Z M 630 483 L 629 485 L 632 486 L 630 483 Z M 628 484 L 626 487 L 628 486 L 628 484 Z " /><path fill="rgb(254,254,254)" stroke="rgb(254,254,254)" stroke-width="1" opacity="1" d="M 713.5 472 L 715.5 475 L 717 474.5 L 716 472.5 L 717 472.5 L 718.5 475 L 720.5 475 L 743.5 475 L 744.5 474 L 746 474.5 L 745.5 473 L 720.5 473 L 720.5 472 L 745.5 472 L 748.5 475 L 749 473.5 L 748.5 472 L 750.5 473 L 752 472.5 Q 752.7 475.1 750 474 L 750 476 Q 753 475 752 478 L 747.5 480 L 745.5 479 L 742 483.5 L 744 484 Q 745.1 486.7 742.5 486 L 739.5 488 L 741 485.5 L 740 484.5 L 745.5 478 L 747.5 479 L 749 476.5 L 746.5 476 L 714.5 476 L 712.5 477 L 712.5 476 Q 714.8 476.8 714 474.5 L 712 474.5 L 713.5 472 Z " /><path fill="rgb(254,254,254)" stroke="rgb(254,254,254)" stroke-width="1" opacity="1" d="M 419.5 474 L 423 474.5 L 419.5 475 L 419.5 474 Z " /><path fill="rgb(254,254,254)" stroke="rgb(254,254,254)" stroke-width="1" opacity="1" d="M 575.5 476 L 576 478 L 573 477.5 L 575.5 476 Z " /><path fill="rgb(254,254,254)" stroke="rgb(254,254,254)" stroke-width="1" opacity="1" d="M 712 478 L 715 478.5 L 713 479.5 L 716 480 L 717 483.5 L 716 486.5 L 717 488.5 L 716 490.5 L 717 493.5 L 716 497 L 712 496 L 713.5 485 L 714 492.5 L 713 495 L 716 493.5 L 715 488.5 L 715 486.5 L 716 482 Q 712.2 480.5 713 483.5 L 712 483.5 L 713 480.5 L 712 478 Z " /><path fill="rgb(254,254,254)" stroke="rgb(254,254,254)" stroke-width="1" opacity="1" d="M 256.5 480 Q 259.9 479.1 258 484.5 L 257 484.5 L 256.5 480 Z " /><path fill="rgb(254,254,254)" stroke="rgb(254,254,254)" stroke-width="1" opacity="1" d="M 261.5 480 L 262 483.5 L 261 484.5 L 261 519.5 L 262 521.5 L 261 521.5 L 260.5 520 L 259.5 522 L 259 520.5 L 260 519.5 L 260 488.5 Q 257.8 487.3 259 482.5 L 261.5 480 Z " /><path fill="rgb(254,254,254)" stroke="rgb(254,254,254)" stroke-width="1" opacity="1" d="M 392.5 480 L 396 480.5 L 394 481 L 394.5 483 L 396 482.5 L 397 484.5 L 394 486.5 L 396 487 L 396.5 489 Q 397.8 486.8 399 489.5 L 397 490.5 L 401 492.5 L 400 494.5 L 402 494.5 L 401.5 496 L 403 496.5 L 401.5 497 Q 400 493.5 398.5 496 L 394.5 493 L 392.5 496 L 393 494.5 L 392 490.5 L 393 487.5 L 394 483.5 L 393 483.5 L 392.5 485 L 392 483.5 L 393 481.5 L 392.5 480 Z M 395 488 L 395 491 Q 394 494 397 493 L 395 488 Z M 397 493 Q 396 496 399 495 Q 400 492 397 493 Z " /><path fill="rgb(254,254,254)" stroke="rgb(254,254,254)" stroke-width="1" opacity="1" d="M 398.5 480 L 403.5 481 L 405 480.5 L 404 483 L 400.5 481 L 400 484 L 397 482.5 L 398.5 480 Z " /><path fill="rgb(254,254,254)" stroke="rgb(254,254,254)" stroke-width="1" opacity="1" d="M 451.5 480 L 452 481.5 L 448.5 484 L 448.5 483 L 451 481.5 L 451.5 480 Z " /><path fill="rgb(254,254,254)" stroke="rgb(254,254,254)" stroke-width="1" opacity="1" d="M 453 480 Q 456.7 478.8 455 484 L 452 485.5 L 452 487 L 448 487 Q 446.7 483.7 451.5 485 Q 454 483.8 453 480 Z " /><path fill="rgb(254,254,254)" stroke="rgb(254,254,254)" stroke-width="1" opacity="1" d="M 521.5 480 L 523 480.5 L 520 482.5 L 522 483.5 Q 521.3 481.3 523.5 482 Q 524.8 479.8 526 482.5 L 526.5 484 L 527 481.5 L 526.5 480 Q 529.9 479.1 528 484.5 L 524 487.5 Q 523.3 490.1 526 489 Q 524.9 486.3 527.5 487 L 526 489.5 L 526 491 L 528 491.5 L 528 502.5 L 527 502.5 L 526 494.5 L 526.5 493 L 525 492.5 L 525.5 491 Q 523.3 491.8 524 489.5 L 518 481.5 L 521.5 480 Z M 525 482 L 524 485 L 525 485 L 525 482 Z M 523 484 L 522 486 L 524 487 L 523 484 Z " /><path fill="rgb(254,254,254)" stroke="rgb(254,254,254)" stroke-width="1" opacity="1" d="M 544.5 485 L 545 487.5 L 544 487.5 L 544.5 485 Z " /><path fill="rgb(254,254,254)" stroke="rgb(254,254,254)" stroke-width="1" opacity="1" d="M 257.5 488 L 258 519.5 L 257 519.5 L 257.5 488 Z " /><path fill="rgb(254,254,254)" stroke="rgb(254,254,254)" stroke-width="1" opacity="1" d="M 448.5 488 L 450.5 491 L 452 490.5 Q 450.8 493.8 447 493 Q 446 489.2 448.5 488 Z M 449 490 Q 447 493 450 492 L 449 490 Z " /><path fill="rgb(254,254,254)" stroke="rgb(254,254,254)" stroke-width="1" opacity="1" d="M 685.5 488 L 688 490.5 Q 686.8 495.8 689.5 497 L 692 498.5 L 692.5 502 L 694.5 498 L 696 501.5 L 695 505.5 L 696 507.5 L 694.5 510 L 696 510.5 L 694.5 511 L 692 507.5 Q 696 505.5 692 503.5 L 691.5 502 L 690.5 504 L 689 501.5 L 691 501.5 Q 692.1 498.2 689.5 499 L 688 499.5 L 689 497.5 L 687 497.5 L 686 493.5 L 687 491 Q 683.5 492.1 685.5 488 Z " /><path fill="rgb(254,254,254)" stroke="rgb(254,254,254)" stroke-width="1" opacity="1" d="M 464 491 Q 469.4 489.5 471 492.5 L 468.5 493 L 465.5 492 L 464 492.5 L 464 491 Z " /><path fill="rgb(254,254,254)" stroke="rgb(254,254,254)" stroke-width="1" opacity="1" d="M 475.5 491 L 475.5 493 L 478.5 492 L 478.5 493 L 475.5 494 L 473.5 493 Q 472.5 497 466.5 496 L 463.5 495 L 462.5 496 L 456 496 Q 457.3 499 453.5 498 L 452 500.5 L 454.5 499 L 456 500.5 L 455 502.5 L 455.5 504 L 453.5 503 L 452 504.5 L 452 559.5 L 453.5 565 L 456 563.5 L 455.5 566 L 454.5 565 L 452 566.5 L 451.5 560 L 449.5 561 L 449.5 560 L 451 559.5 L 451 502 L 449 501.5 L 457.5 494 L 459.5 495 L 459.5 493 L 461 493.5 Q 460.3 490.9 463 492 Q 461.7 495.3 466.5 494 L 470.5 495 L 475.5 491 Z " /><path fill="rgb(254,254,254)" stroke="rgb(254,254,254)" stroke-width="1" opacity="1" d="M 734.5 491 L 736 492.5 L 734.5 496 Q 732.3 496.8 733 494.5 L 731 493.5 L 732 495.5 L 729.5 496 L 728 495.5 L 731.5 492 Q 733 494.5 734.5 491 Z " /><path fill="rgb(254,254,254)" stroke="rgb(254,254,254)" stroke-width="1" opacity="1" d="M 480.5 493 L 485 498.5 L 482.5 499 L 481 497.5 L 479 494.5 L 480.5 493 Z " /><path fill="rgb(254,254,254)" stroke="rgb(254,254,254)" stroke-width="1" opacity="1" d="M 332.5 496 L 333 498 L 331 497.5 L 332.5 496 Z " /><path fill="rgb(254,254,254)" stroke="rgb(254,254,254)" stroke-width="1" opacity="1" d="M 727.5 497 L 727 498.5 L 728 500.5 L 726.5 500 L 725 500.5 L 728 504.5 L 727 507 L 725 506.5 L 727 503.5 L 724.5 503 L 723 503.5 L 724 505.5 L 723 505.5 L 722.5 504 L 720 507.5 L 721.5 508 Q 723.2 505.3 725 509.5 L 723.5 512 L 722 511.5 L 723 509 L 720.5 510 L 719.5 508 L 719 511 L 721 511.5 L 719.5 512 L 718 508.5 L 723.5 502 L 725 501.5 L 724 500.5 L 727.5 497 Z " /><path fill="rgb(254,254,254)" stroke="rgb(254,254,254)" stroke-width="1" opacity="1" d="M 403.5 498 L 403 499.5 L 401.5 502 L 401 500.5 L 403.5 498 Z " /><path fill="rgb(254,254,254)" stroke="rgb(254,254,254)" stroke-width="1" opacity="1" d="M 713.5 498 L 714.5 500 L 713 499.5 L 714 502.5 L 708.5 511 L 707 510.5 L 708 512.5 L 706 513.5 L 706.5 512 L 704 513.5 Q 708 515.5 704 517.5 L 701.5 521 L 699 519.5 L 695 512.5 L 699.5 512 L 701.5 513 L 703.5 513 L 706 510.5 L 707 508.5 L 706 505 L 704 504.5 L 705.5 504 L 707.5 504 L 709.5 505 L 712 504.5 L 713 501.5 L 712 499.5 L 713.5 498 Z M 707 505 L 707 507 L 710 508 L 710 507 L 707 505 Z M 698 513 L 698 517 L 700 518 L 699 516 L 701 516 Q 704 517 703 515 L 698 513 Z M 703 517 L 700 518 L 701 520 L 703 519 L 703 517 Z " /><path fill="rgb(254,254,254)" stroke="rgb(254,254,254)" stroke-width="1" opacity="1" d="M 330.5 499 L 331 501.5 L 330.5 503 L 333.5 504 L 334 502 Q 331 503 332 500 L 334.5 499 L 335 500.5 L 334.5 502 L 336 502.5 L 308.5 528 L 308 526 Q 305 527 306 524 L 310 526 L 309 522.5 L 310 522.5 Q 309.3 524.8 311.5 524 L 311 522.5 Q 310.3 520.3 312.5 521 L 314 518.5 L 312 518.5 L 313 516.5 L 312 514.5 L 313 514.5 L 314.5 518 Q 317.8 516.3 314 514.5 L 315.5 512 L 318.5 513 L 321.5 512 L 323.5 513 L 329 509 L 327.5 506 L 323.5 511 Q 318.7 512.3 320 509 L 325 508 Q 326.1 505.3 323.5 506 L 322 506.5 L 323.5 504 L 325.5 505 L 329 504.5 L 328.5 506 Q 331.5 506.7 330 503 Q 327.3 504.1 328 501.5 L 330.5 499 Z M 316 513 L 319 517 L 320 517 L 316 513 Z M 316 517 L 316 519 L 318 518 L 316 517 Z " /><path fill="rgb(254,254,254)" stroke="rgb(254,254,254)" stroke-width="1" opacity="1" d="M 480.5 499 L 482 502.5 L 481.5 504 L 483 504 L 483 500 L 485.5 500 L 484 502.5 L 482.5 507 L 480 503.5 L 481 501.5 L 480.5 499 Z " /><path fill="rgb(254,254,254)" stroke="rgb(254,254,254)" stroke-width="1" opacity="1" d="M 404.5 500 L 406 505.5 L 405 505.5 L 404.5 500 Z " /><path fill="rgb(254,254,254)" stroke="rgb(254,254,254)" stroke-width="1" opacity="1" d="M 640.5 500 L 644 501.5 L 648 508.5 L 646 508.5 L 645.5 510 Q 642.5 509.5 643 505.5 L 644 505.5 L 645.5 508 L 646 506.5 L 643.5 503 L 640 503.5 L 640 501.5 L 640.5 500 Z " /><path fill="rgb(254,254,254)" stroke="rgb(254,254,254)" stroke-width="1" opacity="1" d="M 401 503 L 404 504.5 L 403.5 506 L 402.5 504 L 400.5 509 L 400 506.5 L 401 503 Z " /><path fill="rgb(254,254,254)" stroke="rgb(254,254,254)" stroke-width="1" opacity="1" d="M 485.5 503 Q 488.5 502.1 487 506.5 L 486 510.5 L 487 512.5 Q 483.4 513.9 484 519.5 L 485 519.5 L 486.5 516 L 487 517.5 Q 483.4 520.6 485 528 Q 487.7 526.9 487 529.5 L 486 532.5 L 487 535.5 L 486 535.5 Q 487.1 532.2 484.5 533 L 485 531.5 L 484.5 528 L 483 529.5 Q 484.5 535 482 536.5 L 481.5 552 L 481 535.5 L 482 534.5 L 482 528 L 484 527.5 L 484 520 L 480 520 L 480 512 Q 483 513.3 482 509.5 L 483 509.5 L 484.5 512 L 486 504.5 L 485.5 503 Z M 482 512 L 481 516 L 482 519 L 484 513 L 482 512 Z " /><path fill="rgb(254,254,254)" stroke="rgb(254,254,254)" stroke-width="1" opacity="1" d="M 641.5 505 L 641 506.5 L 640.5 512 L 640 506.5 L 641.5 505 Z " /><path fill="rgb(254,254,254)" stroke="rgb(254,254,254)" stroke-width="1" opacity="1" d="M 402.5 507 L 406 509 L 406.5 507 L 407 510.5 Q 403.7 511.8 405 517.5 L 406 520 Q 402.2 521.5 403 518.5 L 405 510.5 L 402 510.5 L 403 514.5 L 402 514.5 L 401 510.5 L 402.5 507 Z " /><path fill="rgb(254,254,254)" stroke="rgb(254,254,254)" stroke-width="1" opacity="1" d="M 704.5 507 L 705 509.5 L 704 509.5 L 704.5 507 Z " /><path fill="rgb(254,254,254)" stroke="rgb(254,254,254)" stroke-width="1" opacity="1" d="M 642.5 509 L 643 511 L 645 511.5 L 643.5 512 L 642.5 509 Z " /><path fill="rgb(254,254,254)" stroke="rgb(254,254,254)" stroke-width="1" opacity="1" d="M 648.5 510 L 649.5 513 L 651 513.5 L 649.5 514 Q 645 512 648.5 510 Z " /><path fill="rgb(254,254,254)" stroke="rgb(254,254,254)" stroke-width="1" opacity="1" d="M 716.5 511 L 720 516.5 L 717.5 520 L 715.5 520 L 713.5 519 L 710 524.5 L 712 524.5 L 711 526.5 L 712 528.5 L 711 531.5 L 712 533.5 L 710 533.5 L 709.5 536 Q 706.3 534.3 710 532.5 L 709.5 531 L 707 532.5 L 709 529.5 L 706.5 531 L 705 529.5 L 705.5 528 L 704 527.5 L 707 527 L 706.5 525 L 705 525.5 L 708 523.5 Q 705.2 525.3 709.5 527 L 710 525.5 L 709 523.5 L 709.5 522 L 708 521.5 Q 709.2 518.3 713 519 L 712.5 517 L 711 517.5 L 716.5 511 Z M 716 514 L 714 516 L 716 516 L 717 517 L 716 514 Z M 715 517 Q 713 520 716 519 L 715 517 Z " /><path fill="rgb(254,254,254)" stroke="rgb(254,254,254)" stroke-width="1" opacity="1" d="M 407.5 513 L 408 518.5 L 407 518.5 L 407.5 513 Z " /><path fill="rgb(254,254,254)" stroke="rgb(254,254,254)" stroke-width="1" opacity="1" d="M 336.5 515 L 339.5 520 L 340.5 518 L 342.5 521 L 343.5 519 L 344 520.5 L 343 522.5 L 343.5 524 L 340 522.5 L 336.5 515 Z " /><path fill="rgb(254,254,254)" stroke="rgb(254,254,254)" stroke-width="1" opacity="1" d="M 648.5 515 L 652.5 520 L 653.5 518 L 657 523.5 L 656.5 525 L 659 526.5 L 655 527.5 L 656 525.5 L 653.5 520 L 653 521.5 L 654 527 L 652 526.5 L 653 523.5 L 651.5 520 L 650.5 522 L 650 520 Q 647.3 521.1 648 518.5 L 650 518.5 Q 650.7 515.9 648 517 L 648.5 515 Z " /><path fill="rgb(254,254,254)" stroke="rgb(254,254,254)" stroke-width="1" opacity="1" d="M 651.5 515 L 652.5 517 L 651.5 515 Z " /><path fill="rgb(254,254,254)" stroke="rgb(254,254,254)" stroke-width="1" opacity="1" d="M 400.5 516 L 401 519.5 L 400 519.5 L 400.5 516 Z " /><path fill="rgb(254,254,254)" stroke="rgb(254,254,254)" stroke-width="1" opacity="1" d="M 306.5 520 L 307.5 522 Q 304.7 522.7 306.5 520 Z " /><path fill="rgb(254,254,254)" stroke="rgb(254,254,254)" stroke-width="1" opacity="1" d="M 259.5 523 L 260.5 525 L 262 524.5 L 263 527.5 L 261.5 528 L 259 526.5 L 258.5 528 L 258 524.5 L 259.5 523 Z " /><path fill="rgb(254,254,254)" stroke="rgb(254,254,254)" stroke-width="1" opacity="1" d="M 256.5 525 L 257 527.5 L 256 527.5 L 256.5 525 Z " /><path fill="rgb(254,254,254)" stroke="rgb(254,254,254)" stroke-width="1" opacity="1" d="M 342.5 525 L 345 528.5 L 343 527.5 L 342.5 525 Z " /><path fill="rgb(254,254,254)" stroke="rgb(254,254,254)" stroke-width="1" opacity="1" d="M 346 528 L 348.5 529 L 350.5 528 L 352 530.5 L 351 530.5 Q 351.7 527.9 349 529 L 350.5 535 L 351.5 533 L 352 534.5 L 351.5 536 L 353 536.5 L 352 538.5 L 354.5 544 L 355 542.5 L 354 537 L 356 537.5 L 355 540.5 L 356.5 544 L 357.5 542 L 358 543.5 L 357 544.5 L 360 547.5 L 359 550.5 L 360 553.5 L 363.5 560 L 364.5 558 L 365 559.5 Q 363.5 562.5 362 559.5 L 358 552.5 L 358.5 551 L 356 549.5 L 355 547.5 L 357 547.5 L 356.5 545 L 354.5 546 L 346 532.5 L 348 529.5 L 345 530.5 L 346 528 Z M 348 532 L 349 534 Q 350 531 348 532 Z M 359 547 L 357 550 L 359 550 L 359 547 Z " /><path fill="rgb(254,254,254)" stroke="rgb(254,254,254)" stroke-width="1" opacity="1" d="M 480.5 528 L 481 532.5 L 480 532.5 L 480.5 528 Z " /><path fill="rgb(254,254,254)" stroke="rgb(254,254,254)" stroke-width="1" opacity="1" d="M 657.5 528 L 658.5 530 L 659.5 528 L 662 531.5 L 660 534.5 L 662.5 533 L 664 534.5 L 662.5 536 L 658.5 536 L 656 534.5 L 657 531.5 L 656 529.5 L 657.5 528 Z M 660 530 Q 658 533 661 532 L 660 530 Z M 659 532 L 657 535 L 659 535 L 659 532 Z " /><path fill="rgb(254,254,254)" stroke="rgb(254,254,254)" stroke-width="1" opacity="1" d="M 303.5 536 Q 306.3 537.3 304 538.5 L 304.5 540 L 306 539.5 L 305 541.5 L 307 541.5 L 307 543.5 L 307.5 546 L 308.5 544 L 310 546.5 L 308.5 549 L 305.5 545 L 304.5 547 L 304 545.5 L 304.5 544 L 303 543.5 L 303.5 536 Z " /><path fill="rgb(254,254,254)" stroke="rgb(254,254,254)" stroke-width="1" opacity="1" d="M 664.5 536 L 668 543 L 666 543.5 L 667 544.5 L 664 547.5 L 657.5 556 L 655 555 L 653 559.5 L 657 557.5 L 648.5 568 L 648 566 L 650 565.5 L 648 563.5 L 649.5 560 L 651 559.5 L 648 558.5 L 650.5 558 L 652 558.5 Q 654.8 556.5 654 552 L 656.5 553 L 660.5 547 Q 663.1 547.7 662 545 L 658.5 546 L 657.5 544 L 663.5 545 Q 666.2 543.8 664 542.5 L 665 540.5 L 664 537.5 L 664.5 536 Z M 665 541 L 665 543 L 667 542 L 665 541 Z M 662 548 L 660 551 L 662 550 L 662 548 Z M 657 553 L 657 555 L 659 554 L 657 553 Z M 651 560 L 651 562 L 653 561 L 651 560 Z " /><path fill="rgb(254,254,254)" stroke="rgb(254,254,254)" stroke-width="1" opacity="1" d="M 711.5 536 L 715 538.5 L 714 536.5 L 718 538.5 L 717 536.5 L 720 536.5 L 719 539.5 L 719 541.5 L 718.5 543 L 715.5 539 L 712.5 541 L 710 537.5 L 711.5 536 Z " /><path fill="rgb(254,254,254)" stroke="rgb(254,254,254)" stroke-width="1" opacity="1" d="M 715.5 541 L 717.5 544 Q 721.3 542.8 720 546.5 L 719 548.5 L 720 551 L 717 549.5 L 718 547.5 L 716 547.5 L 716.5 546 L 714 544.5 L 713 542.5 L 715 542.5 L 715.5 541 Z " /><path fill="rgb(254,254,254)" stroke="rgb(254,254,254)" stroke-width="1" opacity="1" d="M 258.5 544 L 259 548.5 L 256 548.5 L 256 546 Q 258.8 547 258.5 544 Z " /><path fill="rgb(254,254,254)" stroke="rgb(254,254,254)" stroke-width="1" opacity="1" d="M 657.5 547 L 658 548.5 L 656.5 551 L 656 549.5 L 657.5 547 Z " /><path fill="rgb(254,254,254)" stroke="rgb(254,254,254)" stroke-width="1" opacity="1" d="M 304.5 548 L 308.5 551 L 311 550.5 L 310 548.5 L 312 549.5 L 314 553.5 L 312 554 L 311.5 551 L 308.5 552 L 306.5 551 L 303.5 553 L 304.5 551 L 306 550.5 L 304.5 548 Z " /><path fill="rgb(254,254,254)" stroke="rgb(254,254,254)" stroke-width="1" opacity="1" d="M 670.5 548 L 672 548.5 L 670 549.5 L 674 551.5 L 671 553 Q 669.9 555.7 672.5 555 L 675.5 557 L 675.5 555 L 677 556.5 Q 673.3 558.3 676.5 560 L 677.5 558 L 681 563.5 L 679 563.5 Q 680.7 568.3 676.5 567 L 672.5 568 L 672.5 567 L 676 566.5 L 673.5 565 L 672 565.5 Q 671.3 563.3 673.5 564 L 672.5 561 L 674 560.5 L 674 558.5 L 672.5 556 Q 669.9 555.2 671 558.5 L 668.5 560 L 670 557.5 Q 670.7 554.9 668 556 L 665.5 560 L 664.5 557 L 663 557.5 L 666.5 555 L 668 555.5 Q 668.8 553.3 666.5 554 L 668.5 551 L 670 551.5 L 669 549.5 L 670.5 548 Z M 666 556 L 667 558 Q 668 555 666 556 Z M 676 560 L 675 564 L 677 565 L 676 560 Z M 678 560 L 677 562 L 679 563 L 678 560 Z " /><path fill="rgb(254,254,254)" stroke="rgb(254,254,254)" stroke-width="1" opacity="1" d="M 260.5 549 L 261 561.5 L 260 561.5 L 260.5 549 Z " /><path fill="rgb(254,254,254)" stroke="rgb(254,254,254)" stroke-width="1" opacity="1" d="M 256.5 551 Q 259.8 552.8 258 559.5 L 256 560.5 Q 258.7 558.8 257 552.5 L 256.5 551 Z " /><path fill="rgb(254,254,254)" stroke="rgb(254,254,254)" stroke-width="1" opacity="1" d="M 362.5 552 L 361.5 554 L 362.5 552 Z " /><path fill="rgb(254,254,254)" stroke="rgb(254,254,254)" stroke-width="1" opacity="1" d="M 365.5 552 L 365 553.5 L 363.5 557 L 362 555.5 L 365.5 552 Z " /><path fill="rgb(254,254,254)" stroke="rgb(254,254,254)" stroke-width="1" opacity="1" d="M 483.5 552 Q 487.3 551 486 554 L 483 555.5 L 481.5 559 L 480 558.5 L 482 555 Q 479 556 480 553 L 483.5 552 Z " /><path fill="rgb(254,254,254)" stroke="rgb(254,254,254)" stroke-width="1" opacity="1" d="M 560 552 L 562 552.5 L 560.5 555 L 560 552 Z " /><path fill="rgb(254,254,254)" stroke="rgb(254,254,254)" stroke-width="1" opacity="1" d="M 649.5 552 L 650 554 L 648 553.5 L 649.5 552 Z " /><path fill="rgb(254,254,254)" stroke="rgb(254,254,254)" stroke-width="1" opacity="1" d="M 652.5 552 L 653 554.5 L 649.5 557 L 652 553.5 L 652.5 552 Z " /><path fill="rgb(254,254,254)" stroke="rgb(254,254,254)" stroke-width="1" opacity="1" d="M 719.5 552 L 724 552.5 L 723 554.5 L 725 555.5 L 726.5 552 L 726 553.5 L 728 560 L 730 560.5 L 728.5 561 L 724.5 561 L 723 559.5 L 719.5 552 Z M 727 557 L 726 560 L 727 560 L 727 557 Z " /><path fill="rgb(254,254,254)" stroke="rgb(254,254,254)" stroke-width="1" opacity="1" d="M 602.5 554 L 605 560.5 L 603 561 L 602.5 554 Z " /><path fill="rgb(254,254,254)" stroke="rgb(254,254,254)" stroke-width="1" opacity="1" d="M 314.5 555 L 321 565.5 L 319 565.5 L 320.5 568 Q 321.8 565.8 323 568.5 L 324 570.5 L 323.5 572 L 325 572.5 L 324.5 574 L 326 574.5 L 325 577.5 L 326 580 L 328 579.5 L 326 576.5 L 328 577.5 L 329 579.5 L 328 581.5 L 330 581.5 Q 329.5 584.5 325.5 584 L 325.5 583 L 328 582.5 L 325 581 L 324 577 Q 321 578.3 322 574.5 L 321 574.5 L 320.5 576 L 320 574.5 L 321 572.5 L 320.5 571 Q 321.8 573.3 323 570.5 L 318.5 567 L 317 567.5 L 318 565.5 L 315.5 562 L 315 564.5 L 316 566.5 L 314 567.5 L 315 565 Q 312.3 563.9 313 566.5 L 312 566.5 L 313 563.5 L 312 561.5 L 313.5 562 Q 316.1 562.7 315 560 L 312 559.5 L 312 557.5 Q 311.3 555.3 313.5 556 L 314.5 555 Z M 315 556 L 313 558 L 316 560 L 315 556 Z M 318 562 Q 316 565 319 564 L 318 562 Z " /><path fill="rgb(254,254,254)" stroke="rgb(254,254,254)" stroke-width="1" opacity="1" d="M 485.5 555 Q 487.8 554.3 487 556.5 L 485 556.5 L 485.5 560 L 487 559.5 L 485 564.5 L 487 564.5 L 485.5 579 L 484 568.5 L 485 566.5 L 484 562.5 L 485 560.5 L 484 556.5 L 485.5 555 Z " /><path fill="rgb(254,254,254)" stroke="rgb(254,254,254)" stroke-width="1" opacity="1" d="M 367.5 557 L 368 558.5 L 368 560.5 L 367.5 562 L 366.5 561 L 364 562.5 L 367.5 557 Z " /><path fill="rgb(254,254,254)" stroke="rgb(254,254,254)" stroke-width="1" opacity="1" d="M 662.5 559 Q 664.8 558.3 664 560.5 L 662 560.5 Q 664.6 561.9 664 566.5 L 663 566.5 L 661.5 562 Q 658.3 563.8 662 565.5 L 660 571.5 L 664 572.5 L 661 574.5 L 660.5 576 L 659.5 572 L 656.5 573 L 655 570.5 L 657.5 567 L 659 566.5 L 658.5 565 L 660 565.5 L 659 563.5 L 662.5 559 Z M 659 568 L 656 571 L 659 571 L 659 568 Z " /><path fill="rgb(254,254,254)" stroke="rgb(254,254,254)" stroke-width="1" opacity="1" d="M 454 560 L 456 560.5 L 454 561.5 L 454 560 Z " /><path fill="rgb(254,254,254)" stroke="rgb(254,254,254)" stroke-width="1" opacity="1" d="M 606.5 561 Q 608.8 561.8 608 565.5 L 606.5 568 L 606.5 561 Z " /><path fill="rgb(254,254,254)" stroke="rgb(254,254,254)" stroke-width="1" opacity="1" d="M 731.5 561 L 734 562 L 735 564.5 L 731 566 Q 729.9 568.7 732.5 568 Q 733.8 570.3 735 567.5 L 735.5 566 L 736 568.5 L 733 573 Q 735.7 574.1 735 571.5 L 736 571.5 L 734 575.5 L 736.5 576 Q 738.8 575.3 738 577.5 L 740.5 581 L 741 578.5 L 739.5 576 L 742 577.5 Q 741.3 574.9 744 576 L 743 579.5 L 744 582.5 L 743 582.5 L 742.5 581 L 742 583 Q 739.3 584.1 740 581.5 L 738 580.5 L 739 582.5 L 736 580.5 L 731 572.5 L 733 569.5 L 730.5 571 L 729 569.5 L 731 569.5 L 731 568 Q 727.3 569.5 728 566.5 Q 724.5 565 727 563.5 L 727.5 562 L 728 563.5 L 727.5 565 Q 731.3 566.3 730 562.5 L 731.5 561 Z M 737 578 L 738 580 Q 739 577 737 578 Z " /><path fill="rgb(254,254,254)" stroke="rgb(254,254,254)" stroke-width="1" opacity="1" d="M 258.5 563 Q 262.8 565.2 262 572.5 L 261 572.5 L 260.5 570 L 260 576.5 L 261 579.5 L 258 579.5 L 259 573.5 L 257 574.5 L 256.5 578 L 256 568.5 L 257 566.5 L 256 564.5 L 258 564.5 L 258.5 563 Z " /><path fill="rgb(254,254,254)" stroke="rgb(254,254,254)" stroke-width="1" opacity="1" d="M 366.5 563 Q 369 564.2 368 568 L 370.5 569 L 372 568.5 L 371 570.5 L 374 570.5 L 373 568.5 L 376 568.5 L 375 570.5 L 376 572.5 L 375 574.5 L 376 577 L 379.5 576 L 383 580.5 L 381.5 581 Q 381 577.5 376.5 578 L 374 579.5 L 374.5 578 L 372 576.5 L 371 574.5 L 372.5 574 L 374 574.5 L 372.5 571 Q 370.7 574.8 369 571.5 L 366 566.5 L 367 564.5 L 365 564.5 L 366.5 563 Z M 375 575 L 373 577 L 375 577 L 375 575 Z " /><path fill="rgb(254,254,254)" stroke="rgb(254,254,254)" stroke-width="1" opacity="1" d="M 449 563 L 451 563.5 L 449 564.5 L 449 563 Z " /><path fill="rgb(254,254,254)" stroke="rgb(254,254,254)" stroke-width="1" opacity="1" d="M 603.5 563 Q 606.1 562.3 605 565 L 602 564.5 L 603.5 563 Z " /><path fill="rgb(254,254,254)" stroke="rgb(254,254,254)" stroke-width="1" opacity="1" d="M 481.5 564 L 482 566.5 L 481 566.5 L 481.5 564 Z " /><path fill="rgb(254,254,254)" stroke="rgb(254,254,254)" stroke-width="1" opacity="1" d="M 560.5 565 L 561 570.5 L 560 570.5 L 560.5 565 Z " /><path fill="rgb(254,254,254)" stroke="rgb(254,254,254)" stroke-width="1" opacity="1" d="M 681.5 565 L 685 571.5 L 684.5 573 L 686 573.5 L 685.5 575 Q 688.1 574.2 687 577.5 L 688 579.5 L 687 579.5 L 686.5 578 L 686 581 Q 690.9 579.2 689 585.5 L 688 585.5 L 687.5 583 L 686 583.5 L 683.5 576 L 682.5 581 L 681 578.5 L 683 575.5 L 680 569.5 L 680 567.5 L 681.5 565 Z " /><path fill="rgb(254,254,254)" stroke="rgb(254,254,254)" stroke-width="1" opacity="1" d="M 449.5 567 L 453 568 L 453 572 L 454.5 572 L 456 571.5 L 455.5 575 L 453 574 Q 454 577 451 576 L 450.5 571 L 449.5 573 L 449 569.5 L 449.5 567 Z " /><path fill="rgb(254,254,254)" stroke="rgb(254,254,254)" stroke-width="1" opacity="1" d="M 602 567 L 605 568.5 L 604.5 576 L 603.5 568 L 602.5 573 L 602 567 Z " /><path fill="rgb(254,254,254)" stroke="rgb(254,254,254)" stroke-width="1" opacity="1" d="M 403.5 568 L 404.5 570 L 405.5 568 L 406 570.5 L 404 576.5 L 405 579.5 L 402.5 585 L 403 583.5 L 401.5 579 L 400 579.5 L 401 574.5 L 400 571.5 L 401 571.5 L 403.5 576 L 404 571.5 L 403.5 568 Z M 403 576 L 402 579 L 404 580 L 403 576 Z " /><path fill="rgb(254,254,254)" stroke="rgb(254,254,254)" stroke-width="1" opacity="1" d="M 407.5 568 L 408 571.5 L 407 571.5 L 407.5 568 Z " /><path fill="rgb(254,254,254)" stroke="rgb(254,254,254)" stroke-width="1" opacity="1" d="M 480.5 568 L 481.5 571 L 482.5 568 L 483 570.5 L 480.5 577 L 480.5 568 Z " /><path fill="rgb(254,254,254)" stroke="rgb(254,254,254)" stroke-width="1" opacity="1" d="M 528.5 568 L 531 568.5 L 532 575.5 L 531 580 Q 528 581.3 529 577.5 L 529.5 575 Q 531.8 575.8 531 573.5 L 529.5 571 L 528.5 573 L 528.5 568 Z " /><path fill="rgb(254,254,254)" stroke="rgb(254,254,254)" stroke-width="1" opacity="1" d="M 532.5 568 L 535 568.5 L 532.5 569 L 532.5 568 Z " /><path fill="rgb(254,254,254)" stroke="rgb(254,254,254)" stroke-width="1" opacity="1" d="M 640.5 568 L 641.5 570 L 642 568 L 645 569.5 L 645.5 571 L 647 570.5 L 627.5 591 L 625.5 590 Q 627.4 592.8 622 595.5 Q 622.5 599.5 619.5 600 L 617.5 599 L 616 599.5 L 617 597.5 L 616 592 L 620.5 593 L 622.5 592 Q 623.8 594.3 625 591.5 L 625 589.5 L 624 587.5 L 625.5 584 L 627.5 585 L 629.5 585 L 631.5 584 Q 632.8 586.3 634 583.5 L 632 580.5 L 634 578.5 L 632.5 576 L 636.5 576 L 638.5 577 L 642 575.5 L 640 572.5 L 641 570.5 L 640.5 568 Z M 627 586 Q 624 588 627 589 Q 630 588 627 586 Z M 619 593 L 618 595 L 621 596 L 623 593 L 621 594 L 619 593 Z " /><path fill="rgb(254,254,254)" stroke="rgb(254,254,254)" stroke-width="1" opacity="1" d="M 663.5 568 L 664 570 L 662 569.5 L 663.5 568 Z " /><path fill="rgb(254,254,254)" stroke="rgb(254,254,254)" stroke-width="1" opacity="1" d="M 303.5 569 L 304 571.5 L 303 571.5 L 303.5 569 Z " /><path fill="rgb(254,254,254)" stroke="rgb(254,254,254)" stroke-width="1" opacity="1" d="M 533 570 Q 537.1 568.7 536 572 L 534 572.5 L 536 573 L 535.5 582 L 535 575 L 533 575 L 533 570 Z " /><path fill="rgb(254,254,254)" stroke="rgb(254,254,254)" stroke-width="1" opacity="1" d="M 607.5 571 L 608 575.5 L 607 577.5 L 608 581.5 L 607 581.5 L 606 576.5 L 607.5 571 Z " /><path fill="rgb(254,254,254)" stroke="rgb(254,254,254)" stroke-width="1" opacity="1" d="M 406.5 573 L 407 578.5 L 406 578.5 L 406.5 573 Z " /><path fill="rgb(254,254,254)" stroke="rgb(254,254,254)" stroke-width="1" opacity="1" d="M 654.5 573 L 655 575 L 657.5 574 L 658 576 L 656 576.5 L 656 585.5 L 655 589.5 L 656 592.5 L 654 593.5 L 655 591.5 L 653 591.5 L 654 587.5 L 653 587.5 L 652.5 589 L 652 586.5 Q 655.8 583.8 655 578 Q 652 579 653 576 L 655 575.5 L 654.5 573 Z " /><path fill="rgb(254,254,254)" stroke="rgb(254,254,254)" stroke-width="1" opacity="1" d="M 680.5 574 L 681 576.5 L 680 576.5 L 680.5 574 Z " /><path fill="rgb(254,254,254)" stroke="rgb(254,254,254)" stroke-width="1" opacity="1" d="M 304 576 Q 306.7 574.9 306 577.5 L 307 577.5 L 307.5 576 L 308.5 579 L 309.5 576 L 310.5 579 L 311.5 576 L 312 579.5 L 308 588.5 L 311 586.5 L 311.5 585 L 312 587.5 L 312 589.5 L 311 591.5 L 312 593.5 L 310.5 598 L 312 598.5 L 310.5 599 Q 307.8 597.8 310 596.5 L 307 587.5 L 308 585.5 L 306 585.5 L 308 581.5 L 306 580.5 L 305.5 582 L 305 580.5 L 306 578 Q 303 579 304 576 Z M 310 580 L 309 584 L 310 584 L 310 580 Z " /><path fill="rgb(254,254,254)" stroke="rgb(254,254,254)" stroke-width="1" opacity="1" d="M 381.5 576 L 384 577.5 L 383.5 579 L 381.5 576 Z " /><path fill="rgb(254,254,254)" stroke="rgb(254,254,254)" stroke-width="1" opacity="1" d="M 455.5 576 L 456 578.5 Q 453.3 579.6 454 583 L 456 583.5 L 453 584 L 454 586.5 L 453 588.5 L 455 592 Q 452 593.3 453 589.5 L 451 581.5 L 452 581.5 L 452.5 583 L 453 579.5 L 452 577.5 Q 453.8 579.1 455.5 576 Z " /><path fill="rgb(254,254,254)" stroke="rgb(254,254,254)" stroke-width="1" opacity="1" d="M 483.5 576 L 484 578.5 L 483 581 Q 480 582.3 481 578.5 L 483.5 576 Z " /><path fill="rgb(254,254,254)" stroke="rgb(254,254,254)" stroke-width="1" opacity="1" d="M 552.5 576 L 553 578.5 L 552 578.5 L 552.5 576 Z " /><path fill="rgb(254,254,254)" stroke="rgb(254,254,254)" stroke-width="1" opacity="1" d="M 557.5 576 L 558 578.5 L 556.5 581 L 556 577.5 L 557.5 576 Z " /><path fill="rgb(254,254,254)" stroke="rgb(254,254,254)" stroke-width="1" opacity="1" d="M 320.5 577 L 321 579.5 L 320 579.5 L 320.5 577 Z " /><path fill="rgb(254,254,254)" stroke="rgb(254,254,254)" stroke-width="1" opacity="1" d="M 450.5 577 L 451 579.5 L 450 579.5 L 450.5 577 Z " /><path fill="rgb(254,254,254)" stroke="rgb(254,254,254)" stroke-width="1" opacity="1" d="M 603 577 Q 606.7 575.6 605 581.5 L 606 584.5 L 604 583.5 L 603 577 Z " /><path fill="rgb(254,254,254)" stroke="rgb(254,254,254)" stroke-width="1" opacity="1" d="M 532.5 578 L 533 583.5 L 532 583.5 L 532.5 578 Z " /><path fill="rgb(254,254,254)" stroke="rgb(254,254,254)" stroke-width="1" opacity="1" d="M 322.5 579 L 324 582.5 L 320 584 L 320.5 582 L 322.5 583 L 322 581.5 L 322.5 579 Z " /><path fill="rgb(254,254,254)" stroke="rgb(254,254,254)" stroke-width="1" opacity="1" d="M 376.5 580 L 380 581.5 L 380.5 584 L 384 583 L 383.5 586 L 383 584 L 381 584.5 Q 383.2 585.8 380.5 587 L 377 584.5 L 375 581.5 L 376.5 580 Z M 377 581 L 379 584 L 379 583 L 377 581 Z " /><path fill="rgb(254,254,254)" stroke="rgb(254,254,254)" stroke-width="1" opacity="1" d="M 558.5 580 L 559 582.5 L 558 587 Q 555.3 585.9 556 588.5 L 557 590.5 L 555 595.5 L 556.5 598 Q 554.3 598.8 555 596.5 L 554 596.5 L 553.5 598 L 552 593.5 L 553 593.5 Q 552.3 596.1 555 595 L 556 589.5 L 553.5 586 L 552.5 588 L 552 585.5 L 553.5 581 Q 552.9 585.6 555.5 587 L 558.5 580 Z " /><path fill="rgb(254,254,254)" stroke="rgb(254,254,254)" stroke-width="1" opacity="1" d="M 652.5 580 L 653 582.5 L 652 582.5 L 652.5 580 Z " /><path fill="rgb(254,254,254)" stroke="rgb(254,254,254)" stroke-width="1" opacity="1" d="M 405.5 581 L 406 583.5 L 405 583.5 L 405.5 581 Z " /><path fill="rgb(254,254,254)" stroke="rgb(254,254,254)" stroke-width="1" opacity="1" d="M 484.5 581 L 485 584 Q 482.3 582.9 483 585.5 L 484 587.5 L 482 587.5 L 483 591.5 L 482 591.5 L 481.5 590 L 480 590.5 L 481 586.5 L 480 584.5 L 481 584.5 L 481.5 586 L 482.5 582 L 484 582.5 L 484.5 581 Z " /><path fill="rgb(254,254,254)" stroke="rgb(254,254,254)" stroke-width="1" opacity="1" d="M 258.5 582 Q 261.1 581.2 260 584.5 L 258.5 584 L 257 584.5 L 259 588 L 256.5 589 L 256 587.5 L 257 585.5 Q 254.2 583.8 258.5 582 Z " /><path fill="rgb(254,254,254)" stroke="rgb(254,254,254)" stroke-width="1" opacity="1" d="M 530.5 582 L 531 584.5 L 530 584.5 L 530.5 582 Z " /><path fill="rgb(254,254,254)" stroke="rgb(254,254,254)" stroke-width="1" opacity="1" d="M 555.5 582 L 556 584.5 L 555 584.5 L 555.5 582 Z " /><path fill="rgb(254,254,254)" stroke="rgb(254,254,254)" stroke-width="1" opacity="1" d="M 683 582 Q 686 581 685 584 Q 682 585 683 582 Z " /><path fill="rgb(254,254,254)" stroke="rgb(254,254,254)" stroke-width="1" opacity="1" d="M 330.5 583 Q 333.8 584.8 330 586.5 L 330.5 588 L 333 586.5 L 332.5 588 L 334 588.5 L 333.5 590 L 336 591.5 L 334.5 591 L 332.5 590 L 331.5 592 L 330.5 590 L 329.5 592 L 329 590.5 L 330 588.5 L 328 585.5 L 331 584.5 L 330.5 583 Z " /><path fill="rgb(254,254,254)" stroke="rgb(254,254,254)" stroke-width="1" opacity="1" d="M 739.5 584 Q 741.8 583.3 741 585.5 L 743 586.5 L 742 584.5 L 744 585.5 L 743 587.5 L 748.5 593 L 749.5 592 L 752 593.5 L 750.5 593 L 749 593.5 L 751.5 597 L 750 597.5 L 751.5 600 L 749.5 600 L 747.5 599 L 745.5 600 L 743.5 600 L 695 599.5 L 743.5 599 L 744.5 598 L 746 598.5 L 746.5 597 L 749 598.5 L 750 595.5 L 739.5 584 Z " /><path fill="rgb(254,254,254)" stroke="rgb(254,254,254)" stroke-width="1" opacity="1" d="M 745 584 Q 748.3 582.7 747 587.5 Q 748.2 590 752 589 Q 753.2 592.7 748 591 L 746.5 588 L 745 588 L 745 584 Z " /><path fill="rgb(254,254,254)" stroke="rgb(254,254,254)" stroke-width="1" opacity="1" d="M 748.5 584 L 750.5 587 L 752 587.5 L 750.5 588 Q 746.9 586.9 748.5 584 Z " /><path fill="rgb(254,254,254)" stroke="rgb(254,254,254)" stroke-width="1" opacity="1" d="M 404.5 585 L 405 588 L 403 588.5 L 404 590.5 L 402 589.5 L 404.5 585 Z " /><path fill="rgb(254,254,254)" stroke="rgb(254,254,254)" stroke-width="1" opacity="1" d="M 531.5 586 L 532.5 589 L 533.5 586 L 536 589.5 L 534 595.5 L 536 595.5 L 534.5 598 L 536 598.5 L 533.5 600 L 532 597.5 L 534 589.5 L 533 589.5 L 532.5 592 L 531.5 586 Z " /><path fill="rgb(254,254,254)" stroke="rgb(254,254,254)" stroke-width="1" opacity="1" d="M 605 586 L 608 587.5 L 606.5 592 L 606 590.5 L 607 587.5 L 605 587.5 L 605 586 Z " /><path fill="rgb(254,254,254)" stroke="rgb(254,254,254)" stroke-width="1" opacity="1" d="M 383.5 587 L 383 588.5 L 384 592 Q 386.7 590.9 386 593.5 L 388.5 592 Q 391.8 590.9 391 593.5 L 391 595.5 L 392 597.5 L 387.5 600 Q 385.5 596 383.5 600 L 344.5 600 L 343.5 599 Q 342 601.5 340.5 598 L 336.5 600 L 336 597.5 L 337.5 595 L 342 597.5 L 342.5 599 L 343.5 597 L 344 599 L 384 598.5 L 376 597.5 L 383.5 597 L 386.5 598 L 388 597.5 L 380 588.5 L 383.5 587 Z M 389 593 Q 385 595 389 597 Q 388 599 391 598 L 390 597 L 391 595 L 389 593 Z " /><path fill="rgb(254,254,254)" stroke="rgb(254,254,254)" stroke-width="1" opacity="1" d="M 400.5 589 L 402 591.5 L 400.5 594 L 400 592.5 L 400 590.5 L 400.5 589 Z " /><path fill="rgb(254,254,254)" stroke="rgb(254,254,254)" stroke-width="1" opacity="1" d="M 552 589 Q 555 587.8 554 591.5 L 552 590.5 L 552 589 Z " /><path fill="rgb(254,254,254)" stroke="rgb(254,254,254)" stroke-width="1" opacity="1" d="M 688.5 589 L 689 593 Q 685.2 591.5 686 594.5 L 688 594.5 L 688 596.5 L 687.5 598 L 685.5 595 L 685 596.5 L 686 599 L 688 599.5 L 686.5 600 L 684.5 599 L 680.5 600 L 680.5 599 Q 683.5 599.9 682 595.5 L 680 592.5 L 681.5 593 Q 684.1 592.2 683 595.5 L 685 594.5 L 686.5 592 Q 689.4 592.7 688.5 589 Z " /><path fill="rgb(254,254,254)" stroke="rgb(254,254,254)" stroke-width="1" opacity="1" d="M 257.5 590 L 258 592 L 256 591.5 L 257.5 590 Z " /><path fill="rgb(254,254,254)" stroke="rgb(254,254,254)" stroke-width="1" opacity="1" d="M 480.5 592 L 483 597.5 L 482.5 599 L 484 599.5 L 481.5 600 L 480.5 598 L 482 597.5 L 480 597 L 481 593.5 L 480.5 592 Z " /><path fill="rgb(254,254,254)" stroke="rgb(254,254,254)" stroke-width="1" opacity="1" d="M 454 593 L 456 593.5 L 456 595.5 Q 456.8 597.8 454.5 597 L 454.5 598 L 456 598.5 L 453.5 600 L 452.5 598 L 452 600 L 448.5 599 L 447.5 600 L 408.5 600 L 406.5 599 L 403.5 600 L 403.5 599 L 407.5 598 L 408.5 599 L 447.5 599 L 450 597.5 L 450.5 599 L 451 597 Q 455.9 598.6 454 593 Z " /><path fill="rgb(254,254,254)" stroke="rgb(254,254,254)" stroke-width="1" opacity="1" d="M 607.5 594 L 608 596.5 L 607 596.5 L 607.5 594 Z " /><path fill="rgb(254,254,254)" stroke="rgb(254,254,254)" stroke-width="1" opacity="1" d="M 400 595 L 404 597.5 L 402 598 L 401.5 600 Q 399 598.8 400 595 Z " /><path fill="rgb(254,254,254)" stroke="rgb(254,254,254)" stroke-width="1" opacity="1" d="M 655.5 595 L 656 596.5 L 656 598.5 L 655.5 600 L 654 597.5 L 655.5 595 Z " /><path fill="rgb(254,254,254)" stroke="rgb(254,254,254)" stroke-width="1" opacity="1" d="M 256.5 596 L 257 599.5 L 256 599.5 L 256.5 596 Z " /><path fill="rgb(254,254,254)" stroke="rgb(254,254,254)" stroke-width="1" opacity="1" d="M 305.5 596 L 306.5 599 L 307.5 597 L 309 599.5 L 306.5 600 Q 304.3 600.8 305 598.5 Q 302.8 597.3 305.5 596 Z " /><path fill="rgb(254,254,254)" stroke="rgb(254,254,254)" stroke-width="1" opacity="1" d="M 259 597 Q 262.7 595.5 262 598.5 L 262.5 600 Q 260.3 600.8 261 598.5 L 260 598.5 Q 260.8 600.8 258.5 600 L 259 598.5 L 259 597 Z " /><path fill="rgb(254,254,254)" stroke="rgb(254,254,254)" stroke-width="1" opacity="1" d="M 485.5 597 L 488 597.5 L 488.5 599 L 528 599 L 528.5 597 L 532 599.5 L 530.5 600 L 528.5 599 L 527.5 600 L 488.5 600 L 486.5 599 L 485 599.5 L 485.5 597 Z " /><path fill="rgb(254,254,254)" stroke="rgb(254,254,254)" stroke-width="1" opacity="1" d="M 558.5 597 L 559 599.5 L 558 599.5 L 558.5 597 Z " /><path fill="rgb(254,254,254)" stroke="rgb(254,254,254)" stroke-width="1" opacity="1" d="M 600.5 597 L 601 600 L 560 599.5 L 600 599 L 600.5 597 Z " /><path fill="rgb(254,254,254)" stroke="rgb(254,254,254)" stroke-width="1" opacity="1" d="M 602 597 L 606 597 L 606 598.5 L 608 598.5 L 606.5 600 L 604 598.5 L 603.5 600 L 602 597 Z " /><path fill="rgb(254,254,254)" stroke="rgb(254,254,254)" stroke-width="1" opacity="1" d="M 689 597 L 692 597.5 L 689.5 599 L 689 597 Z " /><path fill="rgb(254,254,254)" stroke="rgb(254,254,254)" stroke-width="1" opacity="1" d="M 623.5 598 Q 625.8 597.3 625 599.5 L 622 599.5 L 623.5 598 Z " /><path fill="rgb(254,254,254)" stroke="rgb(254,254,254)" stroke-width="1" opacity="1" d="M 626.5 598 Q 628.8 597.3 628 599.5 L 626.5 598 Z " /><path fill="rgb(254,254,254)" stroke="rgb(254,254,254)" stroke-width="1" opacity="1" d="M 652.5 598 L 653.5 600 Q 650.7 600.7 652.5 598 Z " /><path fill="rgb(254,254,254)" stroke="rgb(254,254,254)" stroke-width="1" opacity="1" d="M 264.5 599 L 304 599.5 L 264.5 600 L 264.5 599 Z " /><path fill="rgb(254,254,254)" stroke="rgb(254,254,254)" stroke-width="1" opacity="1" d="M 632.5 599 L 648 599.5 L 632.5 600 L 632.5 599 Z " /><path fill="rgb(255,255,255)" stroke="rgb(255,255,255)" stroke-width="1" opacity="1" d="M 293.5 404 L 297 404.5 L 293.5 405 L 293.5 404 Z " /><path fill="rgb(255,255,255)" stroke="rgb(255,255,255)" stroke-width="1" opacity="1" d="M 489.5 469 L 493 469.5 L 490.5 471 L 489.5 469 Z " /><path fill="rgb(255,255,255)" stroke="rgb(255,255,255)" stroke-width="1" opacity="1" d="M 561 473 L 565 473 L 565 474.5 L 561 477 L 561 473 Z " /><path fill="rgb(255,255,255)" stroke="rgb(255,255,255)" stroke-width="1" opacity="1" d="M 555.5 498 L 557 500.5 L 556 500.5 L 555.5 498 Z " /><path fill="rgb(255,255,255)" stroke="rgb(255,255,255)" stroke-width="1" opacity="1" d="M 486.5 507 L 487 510.5 L 486 510.5 L 486.5 507 Z " /><path fill="rgb(255,255,255)" stroke="rgb(255,255,255)" stroke-width="1" opacity="1" d="M 558.5 507 L 560 510.5 L 559 510.5 L 558.5 507 Z " /><path fill="rgb(255,255,255)" stroke="rgb(255,255,255)" stroke-width="1" opacity="1" d="M 486.5 561 L 487 563.5 L 485 564.5 L 486.5 561 Z " /><path fill="rgb(255,255,255)" stroke="rgb(255,255,255)" stroke-width="1" opacity="1" d="M 529.5 571 L 531 575 Q 527.2 576.2 529.5 571 Z " /><path fill="rgb(255,255,255)" stroke="rgb(255,255,255)" stroke-width="1" opacity="1" d="M 653 578 Q 656.3 576.7 655 581.5 L 654 583.5 L 654.5 585 L 653 584.5 L 652.5 586 L 652 583.5 L 653 578 Z " /><path fill="rgb(255,255,255)" stroke="rgb(255,255,255)" stroke-width="1" opacity="1" d="M 653.5 587 L 654 589.5 L 653 589.5 L 653.5 587 Z " /></svg>