<svg version="1.1" id="logo-simon" xmlns="http://www.w3.org/2000/svg" xmlns:xlink="http://www.w3.org/1999/xlink" x="0px" y="0px" viewBox="-143.1 -66.8 358.8 140.8" style="enable-background:new -143.1 -66.8 358.8 140.8;" xml:space="preserve">
 <g>
  <path d="M56.8-66.8L-6.7-20.5l-24.6-17.8l24.6-18.2l17.4,13.1l7.1-5.2L-6.7-66.8l-38.9,28.5l38.9,28.1l63.4-46.4l24.6,18.2
		L56.8-20.5L39.3-33.1L32.2-28l24.6,17.8l38.9-28.2L56.8-66.8z M-89.9,30.3c-7.9-4-16.3-6.3-24.6-6.3c-5.6,0-9.9,0.8-12.7,2
		c-3.2,1.2-4.4,3.2-4.4,5.6s1.6,4.4,4.8,5.2c2.4,0.8,5.9,1.2,11.1,1.6c7.5,0.4,12.7,0.8,15.1,1.2c6.7,0.8,11.9,2.8,15.1,5.2
		c3.2,2.4,4.8,5.9,4.8,10.3c0,5.9-2.4,10.3-7.5,13.5c-5.2,3.2-12.7,4.8-22.2,4.8c-13.9,0-25-3.2-32.5-9.1l5.2-6.7
		c8.7,5.2,17.8,7.9,27.8,7.9c6.3,0,11.5-0.8,15.1-2.8c3.2-1.6,5.2-4,5.2-7.1c0-3.6-2.4-5.9-6.7-7.1c-2.4-0.8-8.7-1.2-18.6-2
		c-9.1-0.8-15.5-2-19-3.6c-4.4-2-6.3-5.6-6.3-10.7c0-5.2,2.4-9.1,7.1-12.3c4-2,10.7-3.2,19.4-3.2c11.9,0,21.8,2.8,29.7,7.9
		C-84.4,24.3-89.9,30.3-89.9,30.3z M-68.1,17.6h9.1v54.7h-9.1V17.6z M33.4,72.3h-9.1V27.5h-0.4L-4.3,63.2l-28.2-35.7h-0.4v44.8H-42
		V17.6h11.5l26.2,32.9l26.2-32.9h11.5L33.4,72.3z M107.9,45c0-6.3-2.8-11.5-8.3-15.5c-4.4-3.6-10.3-5.2-17-5.2
		c-7.5,0-13.9,2-18.6,5.9S56.8,39,56.8,45c0,6.3,2.4,11.1,7.1,15.1s11.1,5.6,18.6,5.6c7.9,0,13.9-2,18.6-5.6
		C105.5,56.1,107.9,50.9,107.9,45 M117.4,45c0,9.1-3.6,16.3-11.1,21.8c-6.3,4.8-14.3,7.1-24.2,7.1c-9.5,0-17.8-2.4-24.2-7.1
		C50.4,61.2,46.9,54.1,46.9,45c0-8.7,3.6-15.9,11.1-21.4c6.7-4.8,14.7-7.5,24.2-7.5c9.5,0,17.4,2.4,23.8,7.5
		C113.9,28.7,117.4,36.2,117.4,45 M184.4,17.6v44.8l-42-44.8h-11.1v54.7h9.1V27.5l41.6,44.8h11.5V17.6L184.4,17.6z M208.6,15.2
		c-3.2,0-5.9,2.8-5.9,5.9s2.8,5.9,5.9,5.9s5.9-2.8,5.9-5.9S212.2,15.2,208.6,15.2 M208.6,28.7c-4,0-7.1-3.2-7.1-7.1s3.2-7.1,7.1-7.1
		c4,0,7.1,3.2,7.1,7.1S212.6,28.7,208.6,28.7 M210.2,25.5h1.2l-2-3.2c1.2-0.4,2-1.2,2-2.4c0-1.2-0.8-2.4-2.4-2.4h-2.8v7.9h1.2v-3.2
		h1.2L210.2,25.5L210.2,25.5z M207.4,21.2v-2.8h1.6c0.8,0,1.6,0.4,1.6,1.2c0,0.8-0.4,1.2-1.6,1.2h-1.6
		C207.4,20.8,207.4,21.2,207.4,21.2z">
  </path>
 </g>
</svg>