<?xml version="1.0" encoding="UTF-8" standalone="no"?>
<svg
   version="1.1"
   class="svg-Tanger-Blue-Logo"
   x="0px"
   y="0px"
   width="133"
   height="40"
   viewBox="0 0 133 40"
   style="enable-background: new 0 0 133 40;"
   xml:space="preserve"
   id="svg8"
   sodipodi:docname="Tanger logo.svg"
   inkscape:version="1.3.2 (091e20e, 2023-11-25, custom)"
   xmlns:inkscape="http://www.inkscape.org/namespaces/inkscape"
   xmlns:sodipodi="http://sodipodi.sourceforge.net/DTD/sodipodi-0.dtd"
   xmlns="http://www.w3.org/2000/svg"
   xmlns:svg="http://www.w3.org/2000/svg"><defs
   id="defs8" /><sodipodi:namedview
   id="namedview8"
   pagecolor="#ffffff"
   bordercolor="#000000"
   borderopacity="0.25"
   inkscape:showpageshadow="2"
   inkscape:pageopacity="0.0"
   inkscape:pagecheckerboard="0"
   inkscape:deskcolor="#d1d1d1"
   inkscape:zoom="10.104747"
   inkscape:cx="66.503395"
   inkscape:cy="20.040086"
   inkscape:window-width="2560"
   inkscape:window-height="1571"
   inkscape:window-x="2391"
   inkscape:window-y="1791"
   inkscape:window-maximized="1"
   inkscape:current-layer="svg8" />
                    <path
   d="M0.0800781 0V5.25644H7.80524V30.0466H13.9009V5.25644H21.6261V0H0.0800781Z"
   fill="#FFFFFF"
   id="path1"
   style="fill:#006ac6;fill-opacity:1" />
	                <path
   d="M27.6384 7.29816C30.7501 7.29816 33.263 8.50061 35.0396 10.4736V7.8135H40.8752V30.0466H35.0396V27.3865C33.258 29.3595 30.7452 30.562 27.6384 30.562C21.4347 30.562 16.9096 25.4331 16.9096 18.935C16.9096 12.4368 21.4347 7.30307 27.6384 7.30307M28.9047 25.3497C32.3402 25.3497 35.0445 22.562 35.0445 18.935C35.0445 15.308 32.3402 12.5153 28.9047 12.5153C25.4691 12.5153 22.8335 15.3276 22.8335 18.935C22.8335 22.5423 25.4936 25.3497 28.9047 25.3497Z"
   fill="#FFFFFF"
   id="path2"
   style="fill:#006ac6;fill-opacity:1" />
	                <path
   d="M65.0616 16.2896V30.0466H59.1622V16.9129C59.1622 14.4442 57.2285 12.5105 54.9561 12.5105C52.2322 12.5105 49.9156 14.5914 49.9156 17.9485V30.0466H44.0113V7.81352H49.9156V10.3019C51.4616 8.38775 53.788 7.28346 56.2469 7.29818C61.4592 7.29818 65.0665 10.9055 65.0665 16.2896"
   fill="#FFFFFF"
   id="path3"
   style="fill:#006ac6;fill-opacity:1" />
	                <path
   d="M77.8765 7.29816C80.9882 7.29816 83.5011 8.50061 85.2778 10.4736V7.8135H91.1134V28.7362C91.1134 35.411 86.8876 40 79.29 40C75.2557 40 71.9722 38.4098 69.0962 35.3031L71.8839 32.0491C73.7882 33.9239 76.3649 34.9693 79.0397 34.9497C82.8189 34.9497 85.2827 32.7804 85.2827 29.1141V27.3865C83.5011 29.3595 80.9882 30.562 77.8815 30.562C71.6778 30.562 67.1526 25.4331 67.1526 18.935C67.1526 12.4368 71.6729 7.30307 77.8765 7.30307M79.1428 25.3497C82.5784 25.3497 85.2827 22.562 85.2827 18.935C85.2827 15.308 82.5784 12.5153 79.1428 12.5153C75.7072 12.5153 73.0716 15.3276 73.0716 18.935C73.0716 22.5423 75.7318 25.3497 79.1428 25.3497Z"
   fill="#FFFFFF"
   id="path4"
   style="fill:#006ac6;fill-opacity:1" />
	                <path
   d="M105.695 25.8601C108.743 25.8601 110.932 24.8294 113.013 22.8761L115.967 25.8356C113.543 28.584 110.323 30.5521 105.714 30.5521C98.1168 30.5521 93.0714 25.4233 93.0714 18.9251C93.0714 12.427 98.269 7.29324 105.16 7.29324C112.051 7.29324 116.811 12.3337 116.811 18.5374C116.806 19.2589 116.718 19.9804 116.556 20.6822H99.0444C99.5598 23.7742 102.136 25.8552 105.695 25.8552M99.1917 16.4761H110.735C110.092 13.8356 107.987 11.9902 105.111 11.9902C102.348 11.9755 99.9181 13.8159 99.1868 16.4761"
   fill="#FFFFFF"
   id="path5"
   style="fill:#006ac6;fill-opacity:1" />
	                <path
   d="M124.959 18.2626V30.0466H119.054V7.8135H124.959V10.5374C126.377 8.64785 128.35 7.29816 130.902 7.29816C131.604 7.29816 132.296 7.45521 132.92 7.76932L132.512 12.9374C131.751 12.6724 130.956 12.5252 130.151 12.5104C127.32 12.5104 124.959 14.8074 124.959 18.2626Z"
   fill="#FFFFFF"
   id="path6"
   style="fill:#006ac6;fill-opacity:1" />
	                <path
   d="M130.735 28.1276C130.735 28.5644 130.559 28.9571 130.274 29.2417C129.989 29.5264 129.597 29.7031 129.16 29.7031C128.723 29.7031 128.33 29.5264 128.046 29.2417C127.761 28.9571 127.584 28.5644 127.584 28.1276C127.584 27.6908 127.761 27.2982 128.046 27.0135C128.33 26.7288 128.723 26.5522 129.16 26.5522C129.597 26.5522 129.989 26.7288 130.274 27.0135C130.559 27.2982 130.735 27.6908 130.735 28.1276H131.079C131.079 27.0675 130.22 26.2135 129.16 26.2086C128.1 26.2086 127.246 27.0675 127.246 28.1276C127.246 29.1877 128.105 30.0417 129.16 30.0466C130.22 30.0466 131.079 29.1877 131.079 28.1276H130.735Z"
   fill="#FFFFFF"
   id="path7"
   style="fill:#006ac6;fill-opacity:1" />
	                <path
   d="M128.517 27.2245H129.234C129.592 27.2245 129.823 27.4405 129.823 27.7742C129.823 27.9705 129.729 28.1423 129.563 28.2405L130.024 29.0307H129.548L129.155 28.3239H128.929V29.0307H128.522V27.2245H128.517ZM129.165 27.9754C129.327 27.9754 129.415 27.9018 129.415 27.7742C129.415 27.6466 129.327 27.573 129.165 27.573H128.929V27.9754H129.165Z"
   fill="#FFFFFF"
   id="path8"
   style="fill:#006ac6;fill-opacity:1" />
        </svg>
