<svg width="1095" height="1375" version="1.1" xmlns="http://www.w3.org/2000/svg" desc="Created with imagetracer.js version 1.2.6" ><path fill="rgb(96,97,99)" stroke="rgb(96,97,99)" stroke-width="1" opacity="0.4549019607843137" d="M 589 5 L 591.5 6 L 592.5 5 L 1037.5 5 L 1040 6 L 1041 8.5 L 1041 38.5 L 1042 39.5 L 1042 129.5 L 1039.5 134 L 1039 132.5 L 1040 131.5 L 1040 8.5 L 1037.5 6 L 592.5 6 L 590 8.5 L 590 254.5 Q 591 257 595.5 256 L 604.5 252 L 602.5 255 L 595.5 258 L 590.5 258 L 588 255.5 L 588 8.5 L 589 5 Z " /><path fill="rgb(96,97,99)" stroke="rgb(96,97,99)" stroke-width="1" opacity="0.4549019607843137" d="M 12.5 6 L 495.5 6 L 499 9.5 L 499 292.5 L 494.5 297 L 486.5 301 L 487.5 299 L 497 292.5 L 497 9.5 L 495.5 8 L 13.5 8 L 11 10.5 L 11 1018.5 L 13.5 1021 L 25.5 1021 L 34.5 1018 L 59.5 1017 L 63.5 1015 L 91.5 1014 L 96.5 1012 L 106.5 1012 L 107.5 1011 L 132.5 1011 L 132.5 1012 Q 127.7 1010.8 126.5 1013 L 103.5 1013 L 102.5 1014 L 93.5 1014 L 83.5 1016 L 68.5 1016 L 56.5 1019 L 37.5 1019 L 30.5 1022 L 12.5 1023 L 9 1019.5 L 9 10.5 L 10 7 L 12.5 6 Z " /><path fill="rgb(96,97,99)" stroke="rgb(96,97,99)" stroke-width="1" opacity="0.4549019607843137" d="M 1030.5 135 L 1034 135.5 L 1027.5 138 L 1019.5 138 Q 1009.9 141.9 996.5 142 L 990.5 145 L 981.5 145 L 975.5 148 L 970.5 148 L 970.5 147 L 979.5 144 L 988.5 144 L 999.5 140 L 1008.5 140 L 1015.5 137 Q 1025.4 138.4 1030.5 135 Z " /><path fill="rgb(96,97,99)" stroke="rgb(96,97,99)" stroke-width="1" opacity="0.4549019607843137" d="M 965.5 147 Q 969.3 146 968 149 L 963.5 149 L 927.5 158 L 922.5 158 L 916.5 161 L 911.5 161 L 912.5 159 Q 919.5 159 923.5 156 L 931.5 156 L 937.5 153 Q 947 154.1 951.5 150 L 958.5 150 L 965.5 147 Z " /><path fill="rgb(96,97,99)" stroke="rgb(96,97,99)" stroke-width="1" opacity="0.4549019607843137" d="M 905.5 161 L 908 161.5 L 905.5 162 L 905.5 161 Z " /><path fill="rgb(96,97,99)" stroke="rgb(96,97,99)" stroke-width="1" opacity="0.4549019607843137" d="M 901.5 162 L 904 162.5 L 901.5 163 L 901.5 162 Z " /><path fill="rgb(96,97,99)" stroke="rgb(96,97,99)" stroke-width="1" opacity="0.4549019607843137" d="M 892.5 163 L 900 163.5 L 878.5 168 L 873.5 171 L 866.5 171 L 861.5 174 L 856.5 174 L 856.5 173 Q 864 172.5 868.5 169 L 874.5 169 L 880.5 166 L 886.5 166 L 892.5 163 Z " /><path fill="rgb(96,97,99)" stroke="rgb(96,97,99)" stroke-width="1" opacity="0.4549019607843137" d="M 852.5 173 L 855 173.5 L 843.5 178 L 826.5 181 L 821.5 184 L 816.5 184 L 811.5 187 L 805.5 187 L 799.5 189 L 799.5 188 Q 802.5 185 809.5 186 L 818.5 182 L 822.5 182 L 828.5 179 L 833.5 179 L 839.5 176 L 845.5 176 L 852.5 173 Z " /><path fill="rgb(96,97,99)" stroke="rgb(96,97,99)" stroke-width="1" opacity="0.4549019607843137" d="M 795.5 189 L 798 189.5 L 785.5 194 L 779.5 194 L 775.5 197 L 769.5 197 L 765.5 200 L 760.5 200 L 750.5 203 L 742.5 207 L 737.5 207 L 737.5 206 L 740.5 206 L 748.5 202 L 753.5 202 L 781.5 192 L 795.5 189 Z " /><path fill="rgb(96,97,99)" stroke="rgb(96,97,99)" stroke-width="1" opacity="0.4549019607843137" d="M 732.5 207 L 736 207.5 L 732.5 210 Q 723.6 209.1 719.5 213 L 719.5 212 L 732.5 207 Z " /><path fill="rgb(96,97,99)" stroke="rgb(96,97,99)" stroke-width="1" opacity="0.4549019607843137" d="M 716.5 212 L 718 212.5 L 701.5 219 L 702.5 217 L 716.5 212 Z " /><path fill="rgb(96,97,99)" stroke="rgb(96,97,99)" stroke-width="1" opacity="0.4549019607843137" d="M 699.5 218 L 700 220 Q 694.6 219.1 692.5 223 L 685.5 224 L 685.5 223 L 699.5 218 Z " /><path fill="rgb(96,97,99)" stroke="rgb(96,97,99)" stroke-width="1" opacity="0.4549019607843137" d="M 682.5 224 L 684 224.5 L 679.5 226 L 679.5 225 L 682.5 224 Z " /><path fill="rgb(96,97,99)" stroke="rgb(96,97,99)" stroke-width="1" opacity="0.4549019607843137" d="M 673.5 227 L 675 227.5 L 642.5 239 L 642.5 238 L 673.5 227 Z " /><path fill="rgb(96,97,99)" stroke="rgb(96,97,99)" stroke-width="1" opacity="0.4549019607843137" d="M 637.5 240 L 639 240.5 L 636.5 242 L 637.5 240 Z " /><path fill="rgb(96,97,99)" stroke="rgb(96,97,99)" stroke-width="1" opacity="0.4549019607843137" d="M 632.5 241 L 635 241.5 L 619.5 249 L 614.5 249 L 608 252 Q 606.9 249.3 609.5 250 Q 611.8 247.3 617.5 248 L 621.5 245 L 625.5 245 L 632.5 241 Z " /><path fill="rgb(96,97,99)" stroke="rgb(96,97,99)" stroke-width="1" opacity="0.4549019607843137" d="M 484.5 301 L 482.5 304 L 476.5 307 L 477.5 305 L 484.5 301 Z " /><path fill="rgb(96,97,99)" stroke="rgb(96,97,99)" stroke-width="1" opacity="0.4549019607843137" d="M 474.5 307 L 473.5 309 L 471.5 310 L 472.5 308 L 474.5 307 Z " /><path fill="rgb(96,97,99)" stroke="rgb(96,97,99)" stroke-width="1" opacity="0.4549019607843137" d="M 467.5 311 L 464.5 315 L 453.5 321 L 454.5 319 L 467.5 311 Z " /><path fill="rgb(96,97,99)" stroke="rgb(96,97,99)" stroke-width="1" opacity="0.4549019607843137" d="M 451.5 321 L 448.5 325 L 433.5 333 L 433.5 332 L 451.5 321 Z " /><path fill="rgb(96,97,99)" stroke="rgb(96,97,99)" stroke-width="1" opacity="0.4549019607843137" d="M 431.5 333 L 432 334.5 L 418.5 343 L 418 341 L 431.5 333 Z " /><path fill="rgb(96,97,99)" stroke="rgb(96,97,99)" stroke-width="1" opacity="0.4549019607843137" d="M 416.5 342 L 416 343.5 L 413.5 347 L 409.5 348 L 411.5 345 L 416.5 342 Z " /><path fill="rgb(96,97,99)" stroke="rgb(96,97,99)" stroke-width="1" opacity="0.4549019607843137" d="M 407.5 348 L 408 349.5 Q 407.5 352.5 403.5 352 L 404.5 350 L 407.5 348 Z " /><path fill="rgb(96,97,99)" stroke="rgb(96,97,99)" stroke-width="1" opacity="0.4549019607843137" d="M 401.5 352 L 401 353.5 L 398.5 357 L 388.5 364 L 385 364 L 381.5 369 L 374 372.5 L 372.5 375 L 368 376 L 365.5 380 L 356.5 385 L 337.5 400 L 339.5 397 L 359.5 381 L 401.5 352 Z " /><path fill="rgb(96,97,99)" stroke="rgb(96,97,99)" stroke-width="1" opacity="0.4549019607843137" d="M 486.5 385 Q 492.3 384.2 494 387.5 L 494 1062.5 L 492.5 1064 L 487.5 1065 L 486.5 1063 Q 491 1064 492 1061.5 L 492 387.5 L 490.5 386 L 485.5 387 L 445.5 412 L 417.5 432 L 422.5 426 L 486.5 385 Z " /><path fill="rgb(96,97,99)" stroke="rgb(96,97,99)" stroke-width="1" opacity="0.4549019607843137" d="M 335.5 400 L 335 401.5 L 330.5 407 L 328 406.5 L 335.5 400 Z " /><path fill="rgb(96,97,99)" stroke="rgb(96,97,99)" stroke-width="1" opacity="0.4549019607843137" d="M 325.5 408 L 326 409.5 L 323.5 411 L 325.5 408 Z " /><path fill="rgb(96,97,99)" stroke="rgb(96,97,99)" stroke-width="1" opacity="0.4549019607843137" d="M 320.5 412 L 321 413.5 L 310.5 423 L 308.5 423 L 310.5 420 L 320.5 412 Z " /><path fill="rgb(96,97,99)" stroke="rgb(96,97,99)" stroke-width="1" opacity="0.4549019607843137" d="M 306.5 423 L 305 425.5 L 294.5 437 Q 270.2 454.7 251 477.5 Q 252.3 481.3 248.5 480 L 228.5 503 Q 226.3 502.3 227 504.5 Q 208.5 526 193 550.5 L 173.5 585 L 174 583.5 Q 190.6 547.6 214 518.5 Q 241.7 482.7 274.5 452 L 306.5 423 Z " /><path fill="rgb(96,97,99)" stroke="rgb(96,97,99)" stroke-width="1" opacity="0.4549019607843137" d="M 414.5 432 L 416 432.5 L 396.5 448 L 402.5 441 L 414.5 432 Z " /><path fill="rgb(96,97,99)" stroke="rgb(96,97,99)" stroke-width="1" opacity="0.4549019607843137" d="M 393.5 448 L 395 448.5 L 383.5 459 L 393.5 448 Z " /><path fill="rgb(96,97,99)" stroke="rgb(96,97,99)" stroke-width="1" opacity="0.4549019607843137" d="M 381.5 459 L 374.5 467 L 363.5 476 L 327 512.5 L 303.5 539 L 307 534.5 Q 322.6 512.6 343 495.5 L 343 493 L 345.5 493 L 356 482.5 Q 354.8 478.8 358.5 480 L 381.5 459 Z " /><path fill="rgb(96,97,99)" stroke="rgb(96,97,99)" stroke-width="1" opacity="0.4549019607843137" d="M 301.5 541 L 299 544.5 L 295.5 549 L 298 545.5 L 301.5 541 Z " /><path fill="rgb(96,97,99)" stroke="rgb(96,97,99)" stroke-width="1" opacity="0.4549019607843137" d="M 294.5 550 L 292 553.5 L 274 576.5 L 263.5 593 L 263 591.5 L 282 563.5 L 294.5 550 Z " /><path fill="rgb(96,97,99)" stroke="rgb(96,97,99)" stroke-width="1" opacity="0.4549019607843137" d="M 171.5 588 L 172 589.5 L 161 615.5 L 161 638.5 L 160 639.5 L 160 729.5 L 161 730.5 L 161 1002.5 L 159 1001.5 L 159 639.5 L 160 638.5 L 160 612.5 L 171.5 588 Z " /><path fill="rgb(96,97,99)" stroke="rgb(96,97,99)" stroke-width="1" opacity="0.4549019607843137" d="M 261 594 L 263 594.5 L 259.5 599 L 259 597.5 L 261 594 Z " /><path fill="rgb(96,97,99)" stroke="rgb(96,97,99)" stroke-width="1" opacity="0.4549019607843137" d="M 257 600 L 259 600.5 L 243 624.5 L 243 673.5 L 242 674.5 L 242 1010.5 L 245.5 1014 L 257 1015.5 L 246.5 1016 L 240 1011.5 L 241 625.5 L 257 600 Z " /><path fill="rgb(96,97,99)" stroke="rgb(96,97,99)" stroke-width="1" opacity="0.4549019607843137" d="M 577 688 L 579.5 689 L 581 688.5 L 578 691.5 L 578 1087 L 586 1089 Q 587.3 1092 583.5 1091 L 577 1086.5 L 576 1084.5 L 576 691.5 L 577 688 Z " /><path fill="rgb(96,97,99)" stroke="rgb(96,97,99)" stroke-width="1" opacity="0.4549019607843137" d="M 582 688 L 599.5 693 L 607.5 697 L 614.5 698 L 637 707.5 L 634.5 708 L 624.5 705 L 612.5 699 L 605.5 698 L 601.5 695 L 596.5 695 L 591.5 692 Q 584.6 692.7 582 690 L 582 688 Z " /><path fill="rgb(96,97,99)" stroke="rgb(96,97,99)" stroke-width="1" opacity="0.4549019607843137" d="M 638.5 708 L 651 713 L 650.5 715 L 638.5 709 L 638.5 708 Z " /><path fill="rgb(96,97,99)" stroke="rgb(96,97,99)" stroke-width="1" opacity="0.4549019607843137" d="M 653.5 714 L 709.5 741 L 740.5 760 L 763 776.5 L 760.5 775 L 738.5 760 L 689.5 732 L 665.5 722 L 660.5 718 Q 654.3 718.7 652 715.5 L 653.5 714 Z " /><path fill="rgb(96,97,99)" stroke="rgb(96,97,99)" stroke-width="1" opacity="0.4549019607843137" d="M 764.5 777 L 766.5 780 L 764.5 777 Z " /><path fill="rgb(96,97,99)" stroke="rgb(96,97,99)" stroke-width="1" opacity="0.4549019607843137" d="M 768.5 780 L 770.5 783 L 768.5 780 Z " /><path fill="rgb(96,97,99)" stroke="rgb(96,97,99)" stroke-width="1" opacity="0.4549019607843137" d="M 772.5 783 L 774.5 786 L 772.5 783 Z " /><path fill="rgb(96,97,99)" stroke="rgb(96,97,99)" stroke-width="1" opacity="0.4549019607843137" d="M 776.5 786 Q 793.3 797.3 807 811.5 L 801.5 807 L 779.5 790 L 776.5 786 Z " /><path fill="rgb(96,97,99)" stroke="rgb(96,97,99)" stroke-width="1" opacity="0.4549019607843137" d="M 809.5 813 L 850 852.5 L 817.5 821 L 809.5 813 Z " /><path fill="rgb(96,97,99)" stroke="rgb(96,97,99)" stroke-width="1" opacity="0.4549019607843137" d="M 855.5 859 L 860.5 865 L 855.5 859 Z " /><path fill="rgb(96,97,99)" stroke="rgb(96,97,99)" stroke-width="1" opacity="0.4549019607843137" d="M 862.5 867 L 866.5 872 L 862.5 867 Z " /><path fill="rgb(96,97,99)" stroke="rgb(96,97,99)" stroke-width="1" opacity="0.4549019607843137" d="M 868.5 874 L 873.5 880 L 868.5 874 Z " /><path fill="rgb(96,97,99)" stroke="rgb(96,97,99)" stroke-width="1" opacity="0.4549019607843137" d="M 875.5 882 L 890 899.5 L 886 896.5 L 875.5 882 Z " /><path fill="rgb(96,97,99)" stroke="rgb(96,97,99)" stroke-width="1" opacity="0.4549019607843137" d="M 890.5 901 L 892.5 904 L 890.5 901 Z " /><path fill="rgb(96,97,99)" stroke="rgb(96,97,99)" stroke-width="1" opacity="0.4549019607843137" d="M 894.5 906 L 895.5 908 L 894.5 906 Z " /><path fill="rgb(96,97,99)" stroke="rgb(96,97,99)" stroke-width="1" opacity="0.4549019607843137" d="M 896.5 909 L 898.5 912 L 896.5 909 Z " /><path fill="rgb(96,97,99)" stroke="rgb(96,97,99)" stroke-width="1" opacity="0.4549019607843137" d="M 899.5 913 L 904 918.5 L 901 916.5 L 899.5 913 Z " /><path fill="rgb(96,97,99)" stroke="rgb(96,97,99)" stroke-width="1" opacity="0.4549019607843137" d="M 904.5 920 L 913 931.5 L 911 930.5 L 904.5 920 Z " /><path fill="rgb(96,97,99)" stroke="rgb(96,97,99)" stroke-width="1" opacity="0.4549019607843137" d="M 913.5 933 L 926 951.5 L 925 951.5 L 913.5 933 Z " /><path fill="rgb(96,97,99)" stroke="rgb(96,97,99)" stroke-width="1" opacity="0.4549019607843137" d="M 926.5 953 L 927.5 955 L 926.5 953 Z " /><path fill="rgb(96,97,99)" stroke="rgb(96,97,99)" stroke-width="1" opacity="0.4549019607843137" d="M 928.5 956 L 931 959.5 L 929 958.5 L 928.5 956 Z " /><path fill="rgb(96,97,99)" stroke="rgb(96,97,99)" stroke-width="1" opacity="0.4549019607843137" d="M 931.5 961 L 934 964.5 L 932 963.5 L 931.5 961 Z " /><path fill="rgb(96,97,99)" stroke="rgb(96,97,99)" stroke-width="1" opacity="0.4549019607843137" d="M 934.5 966 L 937 969.5 L 935 968.5 L 934.5 966 Z " /><path fill="rgb(96,97,99)" stroke="rgb(96,97,99)" stroke-width="1" opacity="0.4549019607843137" d="M 937.5 971 L 940 974.5 L 938 973.5 L 937.5 971 Z " /><path fill="rgb(96,97,99)" stroke="rgb(96,97,99)" stroke-width="1" opacity="0.4549019607843137" d="M 941.5 978 L 944 981.5 L 942 980.5 L 941.5 978 Z " /><path fill="rgb(96,97,99)" stroke="rgb(96,97,99)" stroke-width="1" opacity="0.4549019607843137" d="M 949.5 993 L 972 1038.5 L 970 1037.5 L 969 1032.5 L 949.5 993 Z " /><path fill="rgb(96,97,99)" stroke="rgb(96,97,99)" stroke-width="1" opacity="0.4549019607843137" d="M 159.5 1006 Q 162.1 1005.2 161 1008.5 L 156.5 1012 L 135.5 1012 L 135.5 1011 Q 149.9 1012.9 158 1008.5 L 159.5 1006 Z " /><path fill="rgb(96,97,99)" stroke="rgb(96,97,99)" stroke-width="1" opacity="0.4549019607843137" d="M 263.5 1015 L 273.5 1015 L 287 1018.5 L 281.5 1019 L 274.5 1017 L 266.5 1017 L 263.5 1016 L 263.5 1015 Z " /><path fill="rgb(96,97,99)" stroke="rgb(96,97,99)" stroke-width="1" opacity="0.4549019607843137" d="M 288.5 1018 L 300.5 1018 L 310.5 1020 L 312 1021.5 L 306.5 1022 L 302.5 1020 L 288.5 1019 L 288.5 1018 Z " /><path fill="rgb(96,97,99)" stroke="rgb(96,97,99)" stroke-width="1" opacity="0.4549019607843137" d="M 313.5 1021 L 326.5 1021 Q 334.9 1025.1 348 1024.5 Q 345.3 1027.3 338.5 1026 L 328.5 1023 L 316.5 1023 L 313.5 1022 L 313.5 1021 Z " /><path fill="rgb(96,97,99)" stroke="rgb(96,97,99)" stroke-width="1" opacity="0.4549019607843137" d="M 349 1025 L 355.5 1027 L 364 1027.5 Q 362.5 1030.5 356.5 1029 L 349 1027 L 349 1025 Z " /><path fill="rgb(96,97,99)" stroke="rgb(96,97,99)" stroke-width="1" opacity="0.4549019607843137" d="M 366 1028 L 376.5 1031 L 385 1031.5 L 381.5 1033 L 380.5 1032 L 372.5 1032 L 366 1030 L 366 1028 Z " /><path fill="rgb(96,97,99)" stroke="rgb(96,97,99)" stroke-width="1" opacity="0.4549019607843137" d="M 386.5 1032 L 392 1033.5 L 388.5 1035 L 386.5 1032 Z " /><path fill="rgb(96,97,99)" stroke="rgb(96,97,99)" stroke-width="1" opacity="0.4549019607843137" d="M 393 1034 L 409 1038.5 L 405.5 1039 L 398.5 1036 L 393 1036 L 393 1034 Z " /><path fill="rgb(96,97,99)" stroke="rgb(96,97,99)" stroke-width="1" opacity="0.4549019607843137" d="M 410.5 1038 L 419 1040 Q 420.3 1043 416.5 1042 L 411.5 1040 L 410.5 1038 Z " /><path fill="rgb(96,97,99)" stroke="rgb(96,97,99)" stroke-width="1" opacity="0.4549019607843137" d="M 972.5 1040 L 982 1062.5 L 981 1062.5 L 976 1052.5 L 975 1046.5 L 972 1042.5 L 972.5 1040 Z " /><path fill="rgb(96,97,99)" stroke="rgb(96,97,99)" stroke-width="1" opacity="0.4549019607843137" d="M 421.5 1041 L 427.5 1044 L 433.5 1044 L 437.5 1047 L 446.5 1048 Q 448.2 1051.3 454 1050.5 L 450.5 1052 L 445.5 1049 L 436.5 1048 L 430.5 1045 L 426.5 1045 L 421 1043 L 421.5 1041 Z " /><path fill="rgb(96,97,99)" stroke="rgb(96,97,99)" stroke-width="1" opacity="0.4549019607843137" d="M 455 1051 L 466.5 1056 L 473.5 1057 L 477.5 1060 L 482.5 1060 L 485 1062.5 L 483.5 1063 L 455 1053 L 455 1051 Z " /><path fill="rgb(96,97,99)" stroke="rgb(96,97,99)" stroke-width="1" opacity="0.4549019607843137" d="M 982.5 1065 Q 984.8 1064.3 984 1066.5 L 987 1073.5 L 986 1073.5 L 982.5 1065 Z " /><path fill="rgb(96,97,99)" stroke="rgb(96,97,99)" stroke-width="1" opacity="0.4549019607843137" d="M 990.5 1082 Q 993.8 1083.7 993 1089.5 L 992 1089.5 L 990.5 1082 Z " /><path fill="rgb(96,97,99)" stroke="rgb(96,97,99)" stroke-width="1" opacity="0.4549019607843137" d="M 587.5 1090 L 597 1093.5 L 593.5 1094 L 588.5 1092 L 587.5 1090 Z " /><path fill="rgb(96,97,99)" stroke="rgb(96,97,99)" stroke-width="1" opacity="0.4549019607843137" d="M 598.5 1094 Q 601.8 1096.7 608.5 1096 L 625 1103.5 L 622.5 1104 Q 619.8 1100.3 614 1101 L 613.5 1099 L 611.5 1100 L 598.5 1095 L 598.5 1094 Z " /><path fill="rgb(96,97,99)" stroke="rgb(96,97,99)" stroke-width="1" opacity="0.4549019607843137" d="M 997.5 1102 L 1003 1117.5 L 1002 1117.5 L 997.5 1102 Z " /><path fill="rgb(96,97,99)" stroke="rgb(96,97,99)" stroke-width="1" opacity="0.4549019607843137" d="M 626.5 1103 L 634 1105 Q 635.3 1108 631.5 1107 Q 626.9 1105.8 626.5 1103 Z " /><path fill="rgb(96,97,99)" stroke="rgb(96,97,99)" stroke-width="1" opacity="0.4549019607843137" d="M 635.5 1106 L 643 1109.5 L 639.5 1110 L 635 1108 L 635.5 1106 Z " /><path fill="rgb(96,97,99)" stroke="rgb(96,97,99)" stroke-width="1" opacity="0.4549019607843137" d="M 646.5 1111 L 660 1115 Q 661.3 1118 657.5 1117 L 647.5 1113 L 646.5 1111 Z " /><path fill="rgb(96,97,99)" stroke="rgb(96,97,99)" stroke-width="1" opacity="0.4549019607843137" d="M 661 1116 L 698 1131 Q 699.1 1133.7 696.5 1133 L 668.5 1120 L 661 1118 L 661 1116 Z " /><path fill="rgb(96,97,99)" stroke="rgb(96,97,99)" stroke-width="1" opacity="0.4549019607843137" d="M 1003.5 1119 Q 1007.3 1124.2 1008 1132.5 L 1007 1132.5 L 1003.5 1119 Z " /><path fill="rgb(96,97,99)" stroke="rgb(96,97,99)" stroke-width="1" opacity="0.4549019607843137" d="M 699 1132 L 708 1135.5 L 706.5 1136 L 704.5 1136 L 699 1134 L 699 1132 Z " /><path fill="rgb(96,97,99)" stroke="rgb(96,97,99)" stroke-width="1" opacity="0.4549019607843137" d="M 709.5 1136 L 727 1144 Q 728.1 1146.7 725.5 1146 L 709 1137.5 L 709.5 1136 Z " /><path fill="rgb(96,97,99)" stroke="rgb(96,97,99)" stroke-width="1" opacity="0.4549019607843137" d="M 1008 1137 Q 1011.3 1135.7 1010 1140.5 L 1011 1142.5 L 1010 1142.5 L 1008 1137 Z " /><path fill="rgb(96,97,99)" stroke="rgb(96,97,99)" stroke-width="1" opacity="0.4549019607843137" d="M 728.5 1145 L 733 1147 Q 734.1 1149.7 731.5 1149 L 728.5 1145 Z " /><path fill="rgb(96,97,99)" stroke="rgb(96,97,99)" stroke-width="1" opacity="0.4549019607843137" d="M 1011.5 1147 L 1015 1155.5 L 1014 1155.5 L 1011 1149.5 L 1011.5 1147 Z " /><path fill="rgb(96,97,99)" stroke="rgb(96,97,99)" stroke-width="1" opacity="0.4549019607843137" d="M 734.5 1148 L 739 1150.5 L 735.5 1151 L 734.5 1148 Z " /><path fill="rgb(96,97,99)" stroke="rgb(96,97,99)" stroke-width="1" opacity="0.4549019607843137" d="M 742.5 1152 L 779 1170 Q 780.1 1172.7 777.5 1172 L 766 1166 L 765.5 1164 L 763.5 1165 L 744.5 1155 L 742.5 1152 Z " /><path fill="rgb(96,97,99)" stroke="rgb(96,97,99)" stroke-width="1" opacity="0.4549019607843137" d="M 1014.5 1157 L 1019 1166.5 L 1019 1172.5 Q 1023.1 1174.4 1022 1181.5 L 1021 1181.5 L 1017 1170.5 L 1017 1166.5 L 1015 1163.5 L 1014.5 1157 Z " /><path fill="rgb(96,97,99)" stroke="rgb(96,97,99)" stroke-width="1" opacity="0.4549019607843137" d="M 780.5 1171 L 786 1174.5 L 783.5 1175 L 780 1172.5 L 780.5 1171 Z " /><path fill="rgb(96,97,99)" stroke="rgb(96,97,99)" stroke-width="1" opacity="0.4549019607843137" d="M 787.5 1175 L 820 1193 Q 821.1 1195.7 818.5 1195 L 803 1185.5 L 802.5 1184 L 800.5 1185 L 790 1178.5 Q 790.7 1175.5 787 1177 L 787.5 1175 Z " /><path fill="rgb(96,97,99)" stroke="rgb(96,97,99)" stroke-width="1" opacity="0.4549019607843137" d="M 1021 1184 Q 1024.3 1182.7 1023 1187.5 L 1026 1196.5 L 1032 1226.5 L 1030 1225.5 L 1030 1218.5 L 1027 1212.5 L 1027 1205.5 L 1024 1198.5 L 1024 1192.5 L 1021 1184 Z " /><path fill="rgb(96,97,99)" stroke="rgb(96,97,99)" stroke-width="1" opacity="0.4549019607843137" d="M 821.5 1194 L 826 1197.5 L 823.5 1198 Q 819.9 1196.9 821.5 1194 Z " /><path fill="rgb(96,97,99)" stroke="rgb(96,97,99)" stroke-width="1" opacity="0.4549019607843137" d="M 827.5 1198 L 839 1205.5 L 837.5 1206 Q 829.2 1202.9 827.5 1198 Z " /><path fill="rgb(96,97,99)" stroke="rgb(96,97,99)" stroke-width="1" opacity="0.4549019607843137" d="M 840.5 1206 L 866 1222.5 L 864.5 1223 L 845.5 1212 L 840.5 1206 Z " /><path fill="rgb(96,97,99)" stroke="rgb(96,97,99)" stroke-width="1" opacity="0.4549019607843137" d="M 867.5 1223 L 877 1229.5 L 875.5 1229 Q 869.6 1228.4 867 1224.5 L 867.5 1223 Z " /><path fill="rgb(96,97,99)" stroke="rgb(96,97,99)" stroke-width="1" opacity="0.4549019607843137" d="M 1031.5 1228 Q 1034.5 1227.1 1033 1231.5 L 1032 1231.5 L 1031.5 1228 Z " /><path fill="rgb(96,97,99)" stroke="rgb(96,97,99)" stroke-width="1" opacity="0.4549019607843137" d="M 878.5 1230 L 937.5 1272 L 975 1303.5 L 973.5 1303 L 936.5 1273 L 901 1247.5 Q 901.8 1244.9 898.5 1246 L 893.5 1241 Q 883.7 1238.3 878 1231.5 L 878.5 1230 Z " /><path fill="rgb(96,97,99)" stroke="rgb(96,97,99)" stroke-width="1" opacity="0.4549019607843137" d="M 1033.5 1233 L 1035 1241.5 L 1034 1241.5 L 1033.5 1233 Z " /><path fill="rgb(96,97,99)" stroke="rgb(96,97,99)" stroke-width="1" opacity="0.4549019607843137" d="M 1034.5 1243 L 1038 1255.5 L 1038 1261.5 L 1041 1269.5 L 1041 1279.5 L 1042 1280.5 L 1042 1287.5 L 1045 1304.5 L 1045 1317.5 L 1047 1323.5 L 1047 1334.5 L 1048 1335.5 L 1048 1360.5 L 1047 1360.5 L 1046 1358.5 L 1046 1330.5 L 1044 1324.5 L 1044 1314.5 L 1043 1313.5 L 1043 1297.5 L 1040 1288.5 L 1040 1274.5 L 1037 1266.5 L 1037 1255.5 L 1034 1247.5 L 1034.5 1243 Z " /><path fill="rgb(96,97,99)" stroke="rgb(96,97,99)" stroke-width="1" opacity="0.4549019607843137" d="M 976.5 1304 L 1019 1342.5 L 1043.5 1368 L 1047 1366.5 L 1047.5 1364 L 1048 1366.5 L 1045.5 1370 L 1043.5 1370 L 1023 1349.5 L 1015.5 1341 L 977 1306.5 L 976.5 1304 Z " /><path fill="rgb(96,98,99)" stroke="rgb(96,98,99)" stroke-width="1" opacity="0.996078431372549" d="M 592.5 6 L 1037.5 6 L 1040 8.5 L 1040 131.5 L 1039 134 L 1025.5 137 L 1015.5 137 L 1008.5 140 L 999.5 140 L 988.5 144 L 979.5 144 L 972.5 147 L 965.5 147 L 958.5 150 L 951.5 150 Q 947 154.1 937.5 153 L 931.5 156 L 923.5 156 L 900.5 163 L 892.5 163 L 886.5 166 L 880.5 166 L 874.5 169 L 868.5 169 L 862.5 172 L 852.5 173 L 845.5 176 L 839.5 176 L 833.5 179 L 828.5 179 L 809.5 186 L 803.5 186 L 798.5 189 L 781.5 192 L 753.5 202 L 745.5 203 L 740.5 206 L 728.5 208 L 720.5 212 L 716.5 212 L 684.5 224 L 672.5 228 L 668.5 228 L 664.5 231 L 657.5 232 L 636.5 241 L 632.5 241 L 625.5 245 L 621.5 245 L 617.5 248 L 610.5 249 L 599.5 255 L 591.5 256 L 590 254.5 L 590 8.5 L 592.5 6 Z " /><path fill="rgb(96,98,99)" stroke="rgb(96,98,99)" stroke-width="1" opacity="0.996078431372549" d="M 13.5 8 L 495.5 8 L 497 9.5 L 497 292.5 L 493.5 296 L 411.5 345 L 359.5 381 L 306.5 423 L 248 478.5 Q 219.5 508.5 196 543.5 L 179 571.5 L 160 612.5 L 160 638.5 L 159 639.5 L 159 1001.5 L 160 1005.5 L 156.5 1010 Q 151.8 1008.7 150.5 1011 L 107.5 1011 L 106.5 1012 L 96.5 1012 L 91.5 1014 L 63.5 1015 L 59.5 1017 L 34.5 1018 L 25.5 1021 L 13.5 1021 L 11 1018.5 L 11 10.5 L 13.5 8 Z " /><path fill="rgb(96,98,99)" stroke="rgb(96,98,99)" stroke-width="1" opacity="0.996078431372549" d="M 487.5 386 Q 491.3 385.3 492 387.5 L 492 1061.5 L 490.5 1063 L 485.5 1063 L 482.5 1060 L 477.5 1060 L 473.5 1057 L 466.5 1056 L 453.5 1050 L 448.5 1050 L 446.5 1048 L 437.5 1047 L 433.5 1044 L 427.5 1044 L 413.5 1038 L 406.5 1038 L 384.5 1031 L 376.5 1031 L 363.5 1027 L 355.5 1027 L 347.5 1024 L 336.5 1024 L 326.5 1021 L 311.5 1021 L 300.5 1018 L 285.5 1018 L 273.5 1015 L 250.5 1015 L 245.5 1014 L 242 1010.5 L 242 674.5 L 243 673.5 L 243 624.5 L 274 576.5 L 302 540.5 Q 331 506.5 363.5 476 L 390.5 452 L 428.5 423 L 487.5 386 Z " /><path fill="rgb(96,98,99)" stroke="rgb(96,98,99)" stroke-width="1" opacity="0.996078431372549" d="M 580.5 689 L 586.5 692 L 591.5 692 L 596.5 695 L 601.5 695 L 605.5 698 L 612.5 699 L 624.5 705 L 637.5 708 L 656.5 718 L 660.5 718 L 665.5 722 L 689.5 732 L 738.5 760 Q 803.7 802.3 855 858.5 Q 893.7 900.8 925 950.5 L 944 982.5 L 969 1032.5 L 969 1035.5 L 975 1046.5 L 976 1052.5 L 989 1078.5 L 1008 1133.5 L 1008 1138.5 L 1011 1143.5 L 1011 1149.5 L 1014 1154.5 L 1015 1163.5 L 1021 1179.5 L 1021 1185.5 L 1027 1205.5 L 1027 1212.5 L 1030 1218.5 Q 1029 1228 1033 1232.5 L 1034 1247.5 L 1037 1255.5 L 1037 1266.5 L 1040 1274.5 L 1040 1288.5 L 1043 1297.5 L 1043 1313.5 L 1044 1314.5 L 1044 1324.5 L 1046 1330.5 L 1046 1358.5 L 1048 1363.5 L 1045.5 1368 L 1043.5 1368 L 1019 1343.5 L 1017.5 1341 L 987.5 1313 L 933.5 1269 L 883.5 1233 L 811.5 1188 L 775.5 1168 L 712.5 1137 L 652.5 1112 L 645.5 1111 L 628.5 1103 L 624.5 1103 L 608.5 1096 L 603.5 1096 L 578 1087 L 578 691.5 L 580.5 689 Z " /><path fill="rgb(0,0,0)" stroke="rgb(0,0,0)" stroke-width="1" opacity="0" d="M 0 0 L 1095 0 L 1095 1375 L 0 1375 L 0 0 Z M 589 5 L 588 9 L 588 256 L 591 258 L 596 258 L 607 252 L 609 252 L 634 243 Q 635 239 637 242 L 642 239 L 654 236 L 676 227 Q 683 227 688 223 L 693 223 L 697 220 Q 701 221 700 219 L 702 219 L 717 214 Q 718 210 720 213 Q 724 209 733 210 L 737 207 L 743 207 L 748 204 L 761 200 L 766 200 L 770 197 L 776 197 L 780 194 L 786 194 L 802 188 L 812 187 L 817 184 L 822 184 L 827 181 L 831 181 L 854 175 Q 855 171 857 174 L 862 174 L 867 171 L 874 171 L 879 168 L 883 168 L 910 161 L 912 161 L 917 161 L 923 158 L 928 158 L 964 149 Q 969 151 968 147 L 971 148 L 976 148 L 982 145 L 991 145 L 997 142 Q 1010 142 1020 138 L 1028 138 L 1036 135 L 1038 135 L 1040 134 L 1042 130 L 1042 40 L 1041 39 L 1041 9 L 1040 6 L 1038 5 L 593 5 L 592 6 L 589 5 Z M 13 6 L 10 7 L 9 11 L 9 1020 L 13 1023 L 31 1022 L 38 1019 L 57 1019 L 69 1016 L 84 1016 L 94 1014 L 103 1014 L 104 1013 L 127 1013 L 134 1011 L 136 1012 L 157 1012 L 159 1011 Q 162 1011 161 1007 L 161 1003 L 161 731 L 160 730 L 160 640 L 161 639 L 161 616 L 172 588 L 193 551 Q 209 526 227 505 Q 226 502 229 503 L 249 480 Q 252 481 251 478 Q 270 455 295 437 L 305 426 L 316 419 L 321 413 L 325 411 L 326 409 Q 327 406 331 407 L 335 402 L 342 398 L 357 385 L 366 380 L 368 376 L 373 375 L 374 373 L 382 369 L 385 364 L 389 364 L 399 357 L 401 354 Q 402 351 406 352 L 408 348 L 414 347 L 416 344 Q 417 341 419 343 L 430 337 L 432 333 L 435 333 Q 437 329 444 328 Q 452 320 465 315 L 469 311 L 495 297 L 499 293 L 499 10 L 496 6 L 13 6 Z M 1030 228 L 1026 230 L 1024 229 Q 1018 228 1016 231 L 1014 230 Q 1008 228 1009 232 L 1007 231 Q 1001 229 1002 233 L 999 232 L 992 234 L 990 233 Q 984 232 983 234 Q 979 233 980 236 L 977 235 Q 971 233 972 237 L 968 236 Q 961 235 958 238 Q 950 237 951 240 L 946 239 L 941 239 L 935 241 Q 931 240 932 243 L 929 242 Q 924 241 925 244 L 922 243 Q 915 242 913 245 L 911 245 L 900 246 L 899 247 Q 895 246 896 249 L 894 248 L 890 250 L 887 249 L 874 252 L 872 252 Q 865 251 863 254 Q 859 253 860 256 L 858 255 Q 853 254 854 257 L 852 256 L 848 257 Q 844 256 845 259 L 843 258 L 839 260 L 837 259 L 815 264 Q 812 263 813 266 L 811 265 L 804 266 L 801 268 Q 795 266 796 270 L 794 269 L 791 270 Q 788 269 789 272 L 787 271 Q 783 270 784 273 L 782 272 L 777 273 Q 775 276 774 274 L 762 277 Q 760 280 759 278 Q 756 277 757 280 L 756 279 L 753 280 Q 750 279 751 282 L 749 281 Q 746 280 747 283 L 745 282 L 743 283 Q 740 282 741 285 L 739 284 L 734 286 L 732 286 L 729 287 Q 726 286 727 289 L 725 288 Q 718 288 716 291 L 712 291 L 706 295 Q 699 294 697 297 Q 694 296 695 299 L 687 302 L 685 301 L 680 303 Q 677 302 678 305 L 676 304 L 674 305 Q 671 304 672 307 L 671 306 L 659 311 L 656 311 L 646 316 L 643 316 L 627 324 L 624 324 L 604 333 L 600 336 L 593 338 L 586 345 L 586 415 L 585 416 L 585 621 L 586 623 L 589 625 L 596 626 L 599 628 L 603 627 L 603 629 L 607 628 L 611 631 L 615 630 L 615 632 L 619 631 Q 624 631 626 635 L 629 634 L 635 638 L 637 637 L 637 639 L 646 642 L 649 641 L 655 645 L 658 644 L 662 646 Q 664 645 663 648 L 671 651 L 673 650 L 710 668 L 712 667 L 714 668 L 716 671 L 718 670 L 718 672 L 721 673 Q 725 672 724 675 L 737 680 Q 739 679 738 682 L 747 687 L 749 686 L 749 688 L 755 691 Q 759 689 758 693 Q 759 696 765 695 L 783 707 Q 786 706 785 709 L 810 725 Q 813 724 812 727 L 828 738 Q 831 737 830 740 L 853 757 Q 855 756 854 759 L 860 764 L 872 772 L 901 800 L 902 800 L 905 804 Q 907 803 906 807 L 909 807 L 928 825 L 940 840 L 951 850 L 952 850 L 955 856 L 963 862 L 964 866 L 987 894 L 995 900 L 1002 912 L 1031 950 Q 1035 957 1038 950 L 1038 232 L 1037 229 Q 1035 227 1030 228 Z M 487 385 L 423 426 L 417 432 L 415 432 L 403 441 L 396 448 L 394 448 L 359 480 Q 355 479 356 483 L 346 493 L 343 493 L 343 496 L 317 522 Q 301 544 282 564 L 263 592 Q 264 595 261 594 L 259 598 Q 260 601 257 600 L 241 626 L 240 1012 L 247 1016 L 257 1016 L 258 1015 Q 264 1014 267 1017 L 281 1018 L 282 1019 Q 286 1020 288 1018 Q 293 1021 303 1020 L 307 1022 Q 311 1023 313 1021 L 317 1023 L 329 1023 L 339 1026 Q 345 1028 347 1025 Q 350 1024 349 1027 L 357 1029 Q 362 1031 364 1028 Q 367 1027 366 1030 L 373 1032 L 381 1032 L 382 1033 L 385 1032 L 389 1035 L 392 1034 Q 394 1033 393 1036 L 399 1036 L 406 1039 L 410 1038 L 417 1042 L 420 1041 Q 422 1040 421 1043 L 427 1045 L 431 1045 L 437 1048 L 446 1049 L 451 1052 L 454 1051 Q 456 1050 455 1053 L 474 1060 L 486 1063 L 488 1065 L 493 1064 L 494 1063 L 494 388 Q 492 384 487 385 Z M 577 688 L 576 692 L 576 1085 L 577 1087 L 584 1091 L 587 1090 L 591 1093 L 598 1094 L 612 1100 L 614 1099 L 614 1101 Q 620 1100 623 1104 L 626 1103 L 632 1107 L 635 1106 L 635 1108 Q 637 1111 644 1110 L 658 1117 L 661 1116 L 661 1118 L 669 1120 L 697 1133 L 699 1132 L 699 1134 L 705 1136 L 707 1136 Q 710 1135 709 1138 L 727 1146 L 728 1145 L 732 1149 L 734 1148 L 734 1150 L 736 1151 L 742 1152 Q 751 1160 764 1165 L 766 1164 L 766 1166 L 778 1172 L 780 1171 L 780 1173 L 784 1175 L 786 1175 Q 788 1174 787 1177 L 790 1177 L 790 1179 L 801 1185 L 803 1184 L 803 1186 L 819 1195 L 821 1194 L 821 1196 L 824 1198 Q 828 1197 830 1200 L 834 1204 L 840 1206 L 846 1212 L 865 1223 Q 868 1222 867 1225 L 877 1230 Q 879 1229 878 1232 Q 884 1238 894 1241 L 899 1246 Q 902 1245 901 1248 L 937 1273 L 973 1303 L 976 1304 L 977 1307 L 1016 1341 L 1023 1350 L 1044 1370 L 1046 1370 L 1048 1367 L 1048 1336 L 1047 1335 L 1047 1324 L 1045 1318 L 1045 1305 L 1042 1288 L 1042 1281 L 1041 1280 L 1041 1270 L 1038 1262 L 1038 1256 L 1035 1244 L 1035 1242 Q 1036 1235 1033 1233 Q 1035 1227 1032 1228 L 1032 1227 L 1026 1197 L 1023 1188 Q 1024 1183 1021 1184 L 1022 1182 L 1022 1177 L 1019 1173 L 1019 1167 L 1016 1162 L 1016 1159 Q 1012 1157 1015 1156 L 1013 1149 Q 1009 1147 1012 1146 L 1010 1141 Q 1011 1136 1009 1137 L 1009 1136 L 1006 1124 L 1003 1119 L 1002 1113 L 993 1091 L 993 1086 L 990 1082 L 984 1067 Q 985 1064 982 1065 L 982 1061 L 970 1033 L 943 980 L 926 953 L 926 951 L 886 894 L 850 853 L 817 819 L 793 798 L 760 773 L 710 741 L 670 721 L 655 715 L 653 715 Q 650 716 651 713 L 615 698 L 608 697 L 600 693 L 583 688 L 580 689 L 577 688 Z " /><path fill="rgb(202,164,58)" stroke="rgb(202,164,58)" stroke-width="1" opacity="0.3254901960784314" d="M 1029.5 228 Q 1034.9 227.4 1037 229 L 1038 231.5 L 1038 949.5 Q 1034.5 956.5 1031 949.5 L 1032.5 950 L 1036 949.5 L 1036 231.5 L 1034.5 230 L 1026 229.5 L 1029.5 228 Z " /><path fill="rgb(202,164,58)" stroke="rgb(202,164,58)" stroke-width="1" opacity="0.3254901960784314" d="M 1018.5 229 Q 1023.8 227.8 1025 230.5 L 1016.5 231 L 1016.5 230 L 1018.5 229 Z " /><path fill="rgb(202,164,58)" stroke="rgb(202,164,58)" stroke-width="1" opacity="0.3254901960784314" d="M 1009 230 Q 1013.6 228.8 1015 231.5 L 1009 232 L 1009 230 Z " /><path fill="rgb(202,164,58)" stroke="rgb(202,164,58)" stroke-width="1" opacity="0.3254901960784314" d="M 1002 231 L 1007 231.5 Q 1005.8 234 1002 233 L 1002 231 Z " /><path fill="rgb(202,164,58)" stroke="rgb(202,164,58)" stroke-width="1" opacity="0.3254901960784314" d="M 995.5 232 L 999 232.5 L 992.5 234 L 992.5 233 L 995.5 232 Z " /><path fill="rgb(202,164,58)" stroke="rgb(202,164,58)" stroke-width="1" opacity="0.3254901960784314" d="M 983.5 233 L 990 233.5 L 980 236 Q 978.8 233 982.5 234 L 983.5 233 Z " /><path fill="rgb(202,164,58)" stroke="rgb(202,164,58)" stroke-width="1" opacity="0.3254901960784314" d="M 972 235 Q 976.6 233.8 978 236.5 L 972 237 L 972 235 Z " /><path fill="rgb(202,164,58)" stroke="rgb(202,164,58)" stroke-width="1" opacity="0.3254901960784314" d="M 962.5 236 L 968 236.5 L 951 240 Q 949.9 236.5 957.5 238 L 962.5 236 Z " /><path fill="rgb(202,164,58)" stroke="rgb(202,164,58)" stroke-width="1" opacity="0.3254901960784314" d="M 940.5 239 L 946 239.5 L 932 243 Q 930.8 240 934.5 241 L 940.5 239 Z " /><path fill="rgb(202,164,58)" stroke="rgb(202,164,58)" stroke-width="1" opacity="0.3254901960784314" d="M 925 242 Q 930.2 240.3 929 244 Q 923.8 245.7 925 242 Z " /><path fill="rgb(202,164,58)" stroke="rgb(202,164,58)" stroke-width="1" opacity="0.3254901960784314" d="M 917.5 243 Q 923.4 241.3 922 245 L 912.5 246 L 912.5 245 L 917.5 243 Z " /><path fill="rgb(202,164,58)" stroke="rgb(202,164,58)" stroke-width="1" opacity="0.3254901960784314" d="M 907.5 245 L 911 245.5 L 896.5 249 L 896 247 L 907.5 245 Z " /><path fill="rgb(202,164,58)" stroke="rgb(202,164,58)" stroke-width="1" opacity="0.3254901960784314" d="M 891.5 248 Q 895.3 247 894 250 L 890 249.5 L 891.5 248 Z " /><path fill="rgb(202,164,58)" stroke="rgb(202,164,58)" stroke-width="1" opacity="0.3254901960784314" d="M 883.5 249 L 887 249.5 L 873.5 253 L 873.5 252 L 883.5 249 Z " /><path fill="rgb(202,164,58)" stroke="rgb(202,164,58)" stroke-width="1" opacity="0.3254901960784314" d="M 867.5 252 L 872 252.5 L 870.5 254 L 860 256 Q 858.8 253 862.5 254 L 867.5 252 Z " /><path fill="rgb(202,164,58)" stroke="rgb(202,164,58)" stroke-width="1" opacity="0.3254901960784314" d="M 854 255 Q 859.2 253.3 858 257 Q 852.8 258.7 854 255 Z " /><path fill="rgb(202,164,58)" stroke="rgb(202,164,58)" stroke-width="1" opacity="0.3254901960784314" d="M 848.5 256 Q 852.3 255.3 853 257.5 L 845 259 Q 843.8 256 847.5 257 L 848.5 256 Z " /><path fill="rgb(202,164,58)" stroke="rgb(202,164,58)" stroke-width="1" opacity="0.3254901960784314" d="M 840.5 258 L 843 258.5 L 839.5 260 L 840.5 258 Z " /><path fill="rgb(202,164,58)" stroke="rgb(202,164,58)" stroke-width="1" opacity="0.3254901960784314" d="M 833.5 259 L 837 259.5 L 835.5 261 L 826.5 262 L 826.5 261 L 833.5 259 Z " /><path fill="rgb(202,164,58)" stroke="rgb(202,164,58)" stroke-width="1" opacity="0.3254901960784314" d="M 819.5 262 L 825 262.5 L 813 266 Q 811.9 263.3 814.5 264 L 819.5 262 Z " /><path fill="rgb(202,164,58)" stroke="rgb(202,164,58)" stroke-width="1" opacity="0.3254901960784314" d="M 808.5 265 L 811 265.5 L 796.5 270 L 796 268 L 800.5 268 L 808.5 265 Z " /><path fill="rgb(202,164,58)" stroke="rgb(202,164,58)" stroke-width="1" opacity="0.3254901960784314" d="M 791.5 269 Q 795.3 268 794 271 L 789 272 Q 787.9 269.3 790.5 270 L 791.5 269 Z " /><path fill="rgb(202,164,58)" stroke="rgb(202,164,58)" stroke-width="1" opacity="0.3254901960784314" d="M 784 271 Q 788.1 269.7 787 273 Q 782.9 274.3 784 271 Z " /><path fill="rgb(202,164,58)" stroke="rgb(202,164,58)" stroke-width="1" opacity="0.3254901960784314" d="M 778.5 272 Q 782.3 271.3 783 273.5 L 775.5 275 L 776.5 273 L 778.5 272 Z " /><path fill="rgb(202,164,58)" stroke="rgb(202,164,58)" stroke-width="1" opacity="0.3254901960784314" d="M 772.5 274 L 774 274.5 L 772.5 276 L 768.5 276 L 760.5 279 L 761.5 277 L 772.5 274 Z " /><path fill="rgb(202,164,58)" stroke="rgb(202,164,58)" stroke-width="1" opacity="0.3254901960784314" d="M 757 278 L 759 278.5 L 757 279.5 L 757 278 Z " /><path fill="rgb(202,164,58)" stroke="rgb(202,164,58)" stroke-width="1" opacity="0.3254901960784314" d="M 753.5 279 L 756 279.5 L 751.5 282 L 751 280 L 753.5 279 Z " /><path fill="rgb(202,164,58)" stroke="rgb(202,164,58)" stroke-width="1" opacity="0.3254901960784314" d="M 747 281 Q 750 280 749 283 Q 746 284 747 281 Z " /><path fill="rgb(202,164,58)" stroke="rgb(202,164,58)" stroke-width="1" opacity="0.3254901960784314" d="M 743.5 282 L 746 283.5 L 741 285 Q 739.9 282.3 742.5 283 L 743.5 282 Z " /><path fill="rgb(202,164,58)" stroke="rgb(202,164,58)" stroke-width="1" opacity="0.3254901960784314" d="M 737.5 284 Q 740.1 283.3 739 286 L 735 285.5 L 737.5 284 Z " /><path fill="rgb(202,164,58)" stroke="rgb(202,164,58)" stroke-width="1" opacity="0.3254901960784314" d="M 729.5 286 Q 733.3 285 732 288 L 727 289 Q 725.9 286.3 728.5 287 L 729.5 286 Z " /><path fill="rgb(202,164,58)" stroke="rgb(202,164,58)" stroke-width="1" opacity="0.3254901960784314" d="M 721.5 288 Q 726.3 286.7 725 290 Q 714.1 290.3 706.5 295 L 707.5 293 L 721.5 288 Z " /><path fill="rgb(202,164,58)" stroke="rgb(202,164,58)" stroke-width="1" opacity="0.3254901960784314" d="M 700.5 295 L 704 295.5 L 695.5 299 L 695 297 L 700.5 295 Z " /><path fill="rgb(202,164,58)" stroke="rgb(202,164,58)" stroke-width="1" opacity="0.3254901960784314" d="M 682.5 301 Q 686.3 300 685 303 L 678 305 Q 676.9 302.3 679.5 303 L 682.5 301 Z " /><path fill="rgb(202,164,58)" stroke="rgb(202,164,58)" stroke-width="1" opacity="0.3254901960784314" d="M 674.5 304 L 677 305.5 L 672 307 Q 670.9 304.3 673.5 305 L 674.5 304 Z " /><path fill="rgb(202,164,58)" stroke="rgb(202,164,58)" stroke-width="1" opacity="0.3254901960784314" d="M 668.5 306 Q 672.3 305 671 308 L 663.5 309 L 659.5 311 L 659.5 310 L 668.5 306 Z " /><path fill="rgb(202,164,58)" stroke="rgb(202,164,58)" stroke-width="1" opacity="0.3254901960784314" d="M 655.5 311 L 658 311.5 L 629.5 323 L 629.5 322 L 655.5 311 Z " /><path fill="rgb(202,164,58)" stroke="rgb(202,164,58)" stroke-width="1" opacity="0.3254901960784314" d="M 623.5 324 L 626 324.5 L 592.5 340 L 587 345.5 L 587 620.5 L 591.5 625 L 600.5 626 L 602 627.5 L 598.5 628 L 595.5 626 L 588.5 625 L 586 622.5 L 585 620.5 L 585 415.5 L 586 414.5 L 586 344.5 L 592.5 338 L 599.5 336 L 623.5 324 Z " /><path fill="rgb(202,164,58)" stroke="rgb(202,164,58)" stroke-width="1" opacity="0.3254901960784314" d="M 603 627 L 606 628.5 L 603 629 L 603 627 Z " /><path fill="rgb(202,164,58)" stroke="rgb(202,164,58)" stroke-width="1" opacity="0.3254901960784314" d="M 607.5 628 L 619 630.5 L 615 632 L 614.5 630 L 610.5 631 L 607.5 628 Z " /><path fill="rgb(202,164,58)" stroke="rgb(202,164,58)" stroke-width="1" opacity="0.3254901960784314" d="M 623.5 632 L 628 633 Q 629.3 636 625.5 635 L 623.5 632 Z " /><path fill="rgb(202,164,58)" stroke="rgb(202,164,58)" stroke-width="1" opacity="0.3254901960784314" d="M 632.5 635 L 636 636 Q 637.1 638.7 634.5 638 L 632.5 635 Z " /><path fill="rgb(202,164,58)" stroke="rgb(202,164,58)" stroke-width="1" opacity="0.3254901960784314" d="M 637 637 L 648 640 Q 649.3 643 645.5 642 L 637 639 L 637 637 Z " /><path fill="rgb(202,164,58)" stroke="rgb(202,164,58)" stroke-width="1" opacity="0.3254901960784314" d="M 652.5 642 L 657 643 Q 658.3 646 654.5 645 L 652.5 642 Z " /><path fill="rgb(202,164,58)" stroke="rgb(202,164,58)" stroke-width="1" opacity="0.3254901960784314" d="M 663 646 L 675 650.5 L 673.5 651 L 671.5 651 L 663 648 L 663 646 Z " /><path fill="rgb(202,164,58)" stroke="rgb(202,164,58)" stroke-width="1" opacity="0.3254901960784314" d="M 680.5 653 L 711 666 Q 712.1 668.7 709.5 668 L 692.5 659 L 683.5 656 L 680.5 653 Z " /><path fill="rgb(202,164,58)" stroke="rgb(202,164,58)" stroke-width="1" opacity="0.3254901960784314" d="M 714 668 L 735 678.5 L 733.5 679 L 724 675 Q 725.3 671.7 720.5 673 L 718 672 L 717.5 670 L 715.5 671 L 714 668 Z " /><path fill="rgb(202,164,58)" stroke="rgb(202,164,58)" stroke-width="1" opacity="0.3254901960784314" d="M 738.5 680 L 748 685 Q 749.1 687.7 746.5 687 L 738 681.5 L 738.5 680 Z " /><path fill="rgb(202,164,58)" stroke="rgb(202,164,58)" stroke-width="1" opacity="0.3254901960784314" d="M 749.5 686 L 764 694.5 L 761.5 695 L 758 692.5 Q 758.9 689.5 754.5 691 L 749 687.5 L 749.5 686 Z " /><path fill="rgb(202,164,58)" stroke="rgb(202,164,58)" stroke-width="1" opacity="0.3254901960784314" d="M 765.5 695 L 766.5 697 L 765.5 695 Z " /><path fill="rgb(202,164,58)" stroke="rgb(202,164,58)" stroke-width="1" opacity="0.3254901960784314" d="M 768.5 697 L 772 699.5 L 770.5 699 L 768.5 697 Z " /><path fill="rgb(202,164,58)" stroke="rgb(202,164,58)" stroke-width="1" opacity="0.3254901960784314" d="M 773.5 700 L 784 706.5 L 782.5 707 Q 774.9 704.5 773.5 700 Z " /><path fill="rgb(202,164,58)" stroke="rgb(202,164,58)" stroke-width="1" opacity="0.3254901960784314" d="M 785.5 707 L 811 724.5 L 809.5 725 L 785 708.5 L 785.5 707 Z " /><path fill="rgb(202,164,58)" stroke="rgb(202,164,58)" stroke-width="1" opacity="0.3254901960784314" d="M 812.5 725 L 829 737.5 L 827.5 738 L 812 726.5 L 812.5 725 Z " /><path fill="rgb(202,164,58)" stroke="rgb(202,164,58)" stroke-width="1" opacity="0.3254901960784314" d="M 830.5 739 L 834 741.5 L 832.5 741 L 830.5 739 Z " /><path fill="rgb(202,164,58)" stroke="rgb(202,164,58)" stroke-width="1" opacity="0.3254901960784314" d="M 835.5 742 L 842 747.5 L 840.5 747 L 835.5 742 Z " /><path fill="rgb(202,164,58)" stroke="rgb(202,164,58)" stroke-width="1" opacity="0.3254901960784314" d="M 843.5 748 L 871 771.5 L 867.5 769 L 854 758.5 Q 854.8 756.3 852.5 757 L 843.5 748 Z " /><path fill="rgb(202,164,58)" stroke="rgb(202,164,58)" stroke-width="1" opacity="0.3254901960784314" d="M 872.5 772 L 900.5 799 L 905.5 802 L 938 834.5 L 952 849.5 L 950.5 850 L 927.5 825 L 908.5 807 L 906 807 Q 907.5 803.3 904.5 804 L 902 800 Q 885.2 787.3 872.5 772 Z " /><path fill="rgb(202,164,58)" stroke="rgb(202,164,58)" stroke-width="1" opacity="0.3254901960784314" d="M 952.5 851 L 962 861.5 L 955 855.5 L 952.5 851 Z " /><path fill="rgb(202,164,58)" stroke="rgb(202,164,58)" stroke-width="1" opacity="0.3254901960784314" d="M 963.5 863 L 994 899.5 L 987 893.5 L 964 865.5 L 963.5 863 Z " /><path fill="rgb(202,164,58)" stroke="rgb(202,164,58)" stroke-width="1" opacity="0.3254901960784314" d="M 995.5 901 L 1026 940.5 L 1020 935.5 L 995.5 901 Z " /><path fill="rgb(202,164,58)" stroke="rgb(202,164,58)" stroke-width="1" opacity="0.3254901960784314" d="M 1026.5 942 L 1031 947.5 L 1027 944.5 L 1026.5 942 Z " /><path fill="rgb(203,158,65)" stroke="rgb(203,158,65)" stroke-width="1" opacity="1" d="M 1025.5 230 L 1034.5 230 L 1036 231.5 L 1036 949.5 L 1032.5 950 Q 975.9 869.1 905.5 802 L 900.5 799 Q 875.7 773.3 847.5 751 L 815.5 727 L 757.5 690 L 715.5 668 L 672.5 649 L 618.5 630 L 591.5 625 L 587 620.5 L 587 345.5 L 592.5 340 L 616.5 328 L 663.5 309 L 667.5 309 L 716.5 291 L 742.5 285 L 764.5 277 L 782.5 274 L 808.5 266 L 815.5 266 L 825.5 262 L 863.5 256 L 884.5 250 L 893.5 250 L 901.5 247 L 928.5 244 L 943.5 240 L 955.5 240 L 965.5 237 L 977.5 237 L 986.5 234 L 1005.5 233 L 1006.5 232 L 1024.5 231 L 1025.5 230 Z " /></svg>